<svg xmlns="http://www.w3.org/2000/svg" viewBox="-102 -102 204 204" role="img" aria-label="Butterfly"><defs><linearGradient id="wul" gradientUnits="userSpaceOnUse" x1="-4" y1="-16" x2="-90" y2="-64"><stop offset="0" stop-color="#f1af36"/><stop offset="0.4" stop-color="#2fb39a"/></linearGradient><linearGradient id="wur" gradientUnits="userSpaceOnUse" x1="4" y1="-16" x2="90" y2="-64"><stop offset="0" stop-color="#f1af36"/><stop offset="0.4" stop-color="#2fb39a"/></linearGradient><linearGradient id="wll" gradientUnits="userSpaceOnUse" x1="-4" y1="10" x2="-70" y2="70"><stop offset="0" stop-color="#efa23e"/><stop offset="0.4" stop-color="#6592b4"/></linearGradient><linearGradient id="wlr" gradientUnits="userSpaceOnUse" x1="4" y1="10" x2="70" y2="70"><stop offset="0" stop-color="#efa23e"/><stop offset="0.4" stop-color="#6592b4"/></linearGradient></defs><g stroke-linecap="round"><line x1="-4" y1="-16" x2="-23.88" y2="-4.62" stroke="url(#wul)" stroke-width="0.8"/><line x1="-23.88" y1="-4.62" x2="-41.58" y2="-3.63" stroke="url(#wul)" stroke-width="0.8"/><line x1="-41.58" y1="-3.63" x2="-56.77" y2="-7.13" stroke="url(#wul)" stroke-width="0.8"/><line x1="-56.77" y1="-7.13" x2="-69.85" y2="-14.43" stroke="url(#wul)" stroke-width="0.8"/><line x1="-69.85" y1="-14.43" x2="-80.8" y2="-25.52" stroke="url(#wul)" stroke-width="0.8"/><line x1="-80.8" y1="-25.52" x2="-89.24" y2="-41.1" stroke="url(#wul)" stroke-width="0.8"/><line x1="-89.24" y1="-41.1" x2="-90" y2="-64" stroke="url(#wul)" stroke-width="0.8"/><line x1="-23.88" y1="-4.62" x2="-29.8" y2="-30.4" stroke="url(#wul)" stroke-width="0.7"/><line x1="-41.58" y1="-3.63" x2="-29.8" y2="-30.4" stroke="url(#wul)" stroke-width="0.7"/><line x1="-41.58" y1="-3.63" x2="-51.3" y2="-42.4" stroke="url(#wul)" stroke-width="0.7"/><line x1="-56.77" y1="-7.13" x2="-29.8" y2="-30.4" stroke="url(#wul)" stroke-width="0.7"/><line x1="-56.77" y1="-7.13" x2="-51.3" y2="-42.4" stroke="url(#wul)" stroke-width="0.7"/><line x1="-69.85" y1="-14.43" x2="-51.3" y2="-42.4" stroke="url(#wul)" stroke-width="0.7"/><line x1="-69.85" y1="-14.43" x2="-71.08" y2="-53.44" stroke="url(#wul)" stroke-width="0.7"/><line x1="-80.8" y1="-25.52" x2="-71.08" y2="-53.44" stroke="url(#wul)" stroke-width="0.7"/><line x1="-80.8" y1="-25.52" x2="-51.3" y2="-42.4" stroke="url(#wul)" stroke-width="0.7"/><line x1="-89.24" y1="-41.1" x2="-71.08" y2="-53.44" stroke="url(#wul)" stroke-width="0.7"/><line x1="-4" y1="-16" x2="-4.76" y2="-38.9" stroke="url(#wul)" stroke-width="0.8"/><line x1="-4.76" y1="-38.9" x2="-13.2" y2="-54.48" stroke="url(#wul)" stroke-width="0.8"/><line x1="-13.2" y1="-54.48" x2="-24.15" y2="-65.57" stroke="url(#wul)" stroke-width="0.8"/><line x1="-24.15" y1="-65.57" x2="-37.23" y2="-72.87" stroke="url(#wul)" stroke-width="0.8"/><line x1="-37.23" y1="-72.87" x2="-52.42" y2="-76.37" stroke="url(#wul)" stroke-width="0.8"/><line x1="-52.42" y1="-76.37" x2="-70.12" y2="-75.38" stroke="url(#wul)" stroke-width="0.8"/><line x1="-70.12" y1="-75.38" x2="-90" y2="-64" stroke="url(#wul)" stroke-width="0.8"/><line x1="-4.76" y1="-38.9" x2="-29.8" y2="-30.4" stroke="url(#wul)" stroke-width="0.7"/><line x1="-13.2" y1="-54.48" x2="-29.8" y2="-30.4" stroke="url(#wul)" stroke-width="0.7"/><line x1="-13.2" y1="-54.48" x2="-51.3" y2="-42.4" stroke="url(#wul)" stroke-width="0.7"/><line x1="-24.15" y1="-65.57" x2="-29.8" y2="-30.4" stroke="url(#wul)" stroke-width="0.7"/><line x1="-24.15" y1="-65.57" x2="-51.3" y2="-42.4" stroke="url(#wul)" stroke-width="0.7"/><line x1="-37.23" y1="-72.87" x2="-51.3" y2="-42.4" stroke="url(#wul)" stroke-width="0.7"/><line x1="-37.23" y1="-72.87" x2="-71.08" y2="-53.44" stroke="url(#wul)" stroke-width="0.7"/><line x1="-52.42" y1="-76.37" x2="-71.08" y2="-53.44" stroke="url(#wul)" stroke-width="0.7"/><line x1="-52.42" y1="-76.37" x2="-51.3" y2="-42.4" stroke="url(#wul)" stroke-width="0.7"/><line x1="-70.12" y1="-75.38" x2="-71.08" y2="-53.44" stroke="url(#wul)" stroke-width="0.7"/><line x1="-4" y1="-16" x2="-29.8" y2="-30.4" stroke="url(#wul)" stroke-width="0.8"/><line x1="-29.8" y1="-30.4" x2="-51.3" y2="-42.4" stroke="url(#wul)" stroke-width="0.8"/><line x1="-51.3" y1="-42.4" x2="-71.08" y2="-53.44" stroke="url(#wul)" stroke-width="0.8"/><line x1="-71.08" y1="-53.44" x2="-90" y2="-64" stroke="url(#wul)" stroke-width="0.8"/><line x1="0" y1="-30" x2="-4" y2="-16" stroke="url(#wul)" stroke-width="0.6" stroke-opacity="0.85"/><line x1="0" y1="-14" x2="-4" y2="-16" stroke="url(#wul)" stroke-width="0.6" stroke-opacity="0.85"/><line x1="0" y1="2" x2="-4" y2="-16" stroke="url(#wul)" stroke-width="0.6" stroke-opacity="0.85"/><line x1="4" y1="-16" x2="4.76" y2="-38.9" stroke="url(#wur)" stroke-width="0.8"/><line x1="4.76" y1="-38.9" x2="13.2" y2="-54.48" stroke="url(#wur)" stroke-width="0.8"/><line x1="13.2" y1="-54.48" x2="24.15" y2="-65.57" stroke="url(#wur)" stroke-width="0.8"/><line x1="24.15" y1="-65.57" x2="37.23" y2="-72.87" stroke="url(#wur)" stroke-width="0.8"/><line x1="37.23" y1="-72.87" x2="52.42" y2="-76.37" stroke="url(#wur)" stroke-width="0.8"/><line x1="52.42" y1="-76.37" x2="70.12" y2="-75.38" stroke="url(#wur)" stroke-width="0.8"/><line x1="70.12" y1="-75.38" x2="90" y2="-64" stroke="url(#wur)" stroke-width="0.8"/><line x1="4.76" y1="-38.9" x2="29.8" y2="-30.4" stroke="url(#wur)" stroke-width="0.7"/><line x1="13.2" y1="-54.48" x2="29.8" y2="-30.4" stroke="url(#wur)" stroke-width="0.7"/><line x1="13.2" y1="-54.48" x2="51.3" y2="-42.4" stroke="url(#wur)" stroke-width="0.7"/><line x1="24.15" y1="-65.57" x2="29.8" y2="-30.4" stroke="url(#wur)" stroke-width="0.7"/><line x1="24.15" y1="-65.57" x2="51.3" y2="-42.4" stroke="url(#wur)" stroke-width="0.7"/><line x1="37.23" y1="-72.87" x2="51.3" y2="-42.4" stroke="url(#wur)" stroke-width="0.7"/><line x1="37.23" y1="-72.87" x2="71.08" y2="-53.44" stroke="url(#wur)" stroke-width="0.7"/><line x1="52.42" y1="-76.37" x2="71.08" y2="-53.44" stroke="url(#wur)" stroke-width="0.7"/><line x1="52.42" y1="-76.37" x2="51.3" y2="-42.4" stroke="url(#wur)" stroke-width="0.7"/><line x1="70.12" y1="-75.38" x2="71.08" y2="-53.44" stroke="url(#wur)" stroke-width="0.7"/><line x1="4" y1="-16" x2="23.88" y2="-4.62" stroke="url(#wur)" stroke-width="0.8"/><line x1="23.88" y1="-4.62" x2="41.58" y2="-3.63" stroke="url(#wur)" stroke-width="0.8"/><line x1="41.58" y1="-3.63" x2="56.77" y2="-7.13" stroke="url(#wur)" stroke-width="0.8"/><line x1="56.77" y1="-7.13" x2="69.85" y2="-14.43" stroke="url(#wur)" stroke-width="0.8"/><line x1="69.85" y1="-14.43" x2="80.8" y2="-25.52" stroke="url(#wur)" stroke-width="0.8"/><line x1="80.8" y1="-25.52" x2="89.24" y2="-41.1" stroke="url(#wur)" stroke-width="0.8"/><line x1="89.24" y1="-41.1" x2="90" y2="-64" stroke="url(#wur)" stroke-width="0.8"/><line x1="23.88" y1="-4.62" x2="29.8" y2="-30.4" stroke="url(#wur)" stroke-width="0.7"/><line x1="41.58" y1="-3.63" x2="29.8" y2="-30.4" stroke="url(#wur)" stroke-width="0.7"/><line x1="41.58" y1="-3.63" x2="51.3" y2="-42.4" stroke="url(#wur)" stroke-width="0.7"/><line x1="56.77" y1="-7.13" x2="29.8" y2="-30.4" stroke="url(#wur)" stroke-width="0.7"/><line x1="56.77" y1="-7.13" x2="51.3" y2="-42.4" stroke="url(#wur)" stroke-width="0.7"/><line x1="69.85" y1="-14.43" x2="51.3" y2="-42.4" stroke="url(#wur)" stroke-width="0.7"/><line x1="69.85" y1="-14.43" x2="71.08" y2="-53.44" stroke="url(#wur)" stroke-width="0.7"/><line x1="80.8" y1="-25.52" x2="71.08" y2="-53.44" stroke="url(#wur)" stroke-width="0.7"/><line x1="80.8" y1="-25.52" x2="51.3" y2="-42.4" stroke="url(#wur)" stroke-width="0.7"/><line x1="89.24" y1="-41.1" x2="71.08" y2="-53.44" stroke="url(#wur)" stroke-width="0.7"/><line x1="4" y1="-16" x2="29.8" y2="-30.4" stroke="url(#wur)" stroke-width="0.8"/><line x1="29.8" y1="-30.4" x2="51.3" y2="-42.4" stroke="url(#wur)" stroke-width="0.8"/><line x1="51.3" y1="-42.4" x2="71.08" y2="-53.44" stroke="url(#wur)" stroke-width="0.8"/><line x1="71.08" y1="-53.44" x2="90" y2="-64" stroke="url(#wur)" stroke-width="0.8"/><line x1="0" y1="-30" x2="4" y2="-16" stroke="url(#wur)" stroke-width="0.6" stroke-opacity="0.85"/><line x1="0" y1="-14" x2="4" y2="-16" stroke="url(#wur)" stroke-width="0.6" stroke-opacity="0.85"/><line x1="0" y1="2" x2="4" y2="-16" stroke="url(#wur)" stroke-width="0.6" stroke-opacity="0.85"/><line x1="-4" y1="10" x2="-3.06" y2="26.95" stroke="url(#wll)" stroke-width="0.8"/><line x1="-3.06" y1="26.95" x2="-10.05" y2="44.45" stroke="url(#wll)" stroke-width="0.8"/><line x1="-10.05" y1="44.45" x2="-20.86" y2="57.76" stroke="url(#wll)" stroke-width="0.8"/><line x1="-20.86" y1="57.76" x2="-35.13" y2="67.25" stroke="url(#wll)" stroke-width="0.8"/><line x1="-35.13" y1="67.25" x2="-53.22" y2="72.55" stroke="url(#wll)" stroke-width="0.8"/><line x1="-53.22" y1="72.55" x2="-70" y2="70" stroke="url(#wll)" stroke-width="0.8"/><line x1="-3.06" y1="26.95" x2="-23.8" y2="28" stroke="url(#wll)" stroke-width="0.7"/><line x1="-10.05" y1="44.45" x2="-23.8" y2="28" stroke="url(#wll)" stroke-width="0.7"/><line x1="-10.05" y1="44.45" x2="-40.3" y2="43" stroke="url(#wll)" stroke-width="0.7"/><line x1="-20.86" y1="57.76" x2="-40.3" y2="43" stroke="url(#wll)" stroke-width="0.7"/><line x1="-20.86" y1="57.76" x2="-23.8" y2="28" stroke="url(#wll)" stroke-width="0.7"/><line x1="-35.13" y1="67.25" x2="-55.48" y2="56.8" stroke="url(#wll)" stroke-width="0.7"/><line x1="-35.13" y1="67.25" x2="-40.3" y2="43" stroke="url(#wll)" stroke-width="0.7"/><line x1="-53.22" y1="72.55" x2="-55.48" y2="56.8" stroke="url(#wll)" stroke-width="0.7"/><line x1="-4" y1="10" x2="-20.78" y2="7.45" stroke="url(#wll)" stroke-width="0.8"/><line x1="-20.78" y1="7.45" x2="-38.87" y2="12.75" stroke="url(#wll)" stroke-width="0.8"/><line x1="-38.87" y1="12.75" x2="-53.14" y2="22.24" stroke="url(#wll)" stroke-width="0.8"/><line x1="-53.14" y1="22.24" x2="-63.95" y2="35.55" stroke="url(#wll)" stroke-width="0.8"/><line x1="-63.95" y1="35.55" x2="-70.94" y2="53.05" stroke="url(#wll)" stroke-width="0.8"/><line x1="-70.94" y1="53.05" x2="-70" y2="70" stroke="url(#wll)" stroke-width="0.8"/><line x1="-20.78" y1="7.45" x2="-23.8" y2="28" stroke="url(#wll)" stroke-width="0.7"/><line x1="-38.87" y1="12.75" x2="-23.8" y2="28" stroke="url(#wll)" stroke-width="0.7"/><line x1="-38.87" y1="12.75" x2="-40.3" y2="43" stroke="url(#wll)" stroke-width="0.7"/><line x1="-53.14" y1="22.24" x2="-40.3" y2="43" stroke="url(#wll)" stroke-width="0.7"/><line x1="-53.14" y1="22.24" x2="-23.8" y2="28" stroke="url(#wll)" stroke-width="0.7"/><line x1="-63.95" y1="35.55" x2="-55.48" y2="56.8" stroke="url(#wll)" stroke-width="0.7"/><line x1="-63.95" y1="35.55" x2="-40.3" y2="43" stroke="url(#wll)" stroke-width="0.7"/><line x1="-70.94" y1="53.05" x2="-55.48" y2="56.8" stroke="url(#wll)" stroke-width="0.7"/><line x1="-4" y1="10" x2="-23.8" y2="28" stroke="url(#wll)" stroke-width="0.8"/><line x1="-23.8" y1="28" x2="-40.3" y2="43" stroke="url(#wll)" stroke-width="0.8"/><line x1="-40.3" y1="43" x2="-55.48" y2="56.8" stroke="url(#wll)" stroke-width="0.8"/><line x1="-55.48" y1="56.8" x2="-70" y2="70" stroke="url(#wll)" stroke-width="0.8"/><line x1="0" y1="-14" x2="-4" y2="10" stroke="url(#wll)" stroke-width="0.6" stroke-opacity="0.85"/><line x1="0" y1="2" x2="-4" y2="10" stroke="url(#wll)" stroke-width="0.6" stroke-opacity="0.85"/><line x1="0" y1="18" x2="-4" y2="10" stroke="url(#wll)" stroke-width="0.6" stroke-opacity="0.85"/><line x1="4" y1="10" x2="20.78" y2="7.45" stroke="url(#wlr)" stroke-width="0.8"/><line x1="20.78" y1="7.45" x2="38.87" y2="12.75" stroke="url(#wlr)" stroke-width="0.8"/><line x1="38.87" y1="12.75" x2="53.14" y2="22.24" stroke="url(#wlr)" stroke-width="0.8"/><line x1="53.14" y1="22.24" x2="63.95" y2="35.55" stroke="url(#wlr)" stroke-width="0.8"/><line x1="63.95" y1="35.55" x2="70.94" y2="53.05" stroke="url(#wlr)" stroke-width="0.8"/><line x1="70.94" y1="53.05" x2="70" y2="70" stroke="url(#wlr)" stroke-width="0.8"/><line x1="20.78" y1="7.45" x2="23.8" y2="28" stroke="url(#wlr)" stroke-width="0.7"/><line x1="38.87" y1="12.75" x2="23.8" y2="28" stroke="url(#wlr)" stroke-width="0.7"/><line x1="38.87" y1="12.75" x2="40.3" y2="43" stroke="url(#wlr)" stroke-width="0.7"/><line x1="53.14" y1="22.24" x2="40.3" y2="43" stroke="url(#wlr)" stroke-width="0.7"/><line x1="53.14" y1="22.24" x2="23.8" y2="28" stroke="url(#wlr)" stroke-width="0.7"/><line x1="63.95" y1="35.55" x2="55.48" y2="56.8" stroke="url(#wlr)" stroke-width="0.7"/><line x1="63.95" y1="35.55" x2="40.3" y2="43" stroke="url(#wlr)" stroke-width="0.7"/><line x1="70.94" y1="53.05" x2="55.48" y2="56.8" stroke="url(#wlr)" stroke-width="0.7"/><line x1="4" y1="10" x2="3.06" y2="26.95" stroke="url(#wlr)" stroke-width="0.8"/><line x1="3.06" y1="26.95" x2="10.05" y2="44.45" stroke="url(#wlr)" stroke-width="0.8"/><line x1="10.05" y1="44.45" x2="20.86" y2="57.76" stroke="url(#wlr)" stroke-width="0.8"/><line x1="20.86" y1="57.76" x2="35.13" y2="67.25" stroke="url(#wlr)" stroke-width="0.8"/><line x1="35.13" y1="67.25" x2="53.22" y2="72.55" stroke="url(#wlr)" stroke-width="0.8"/><line x1="53.22" y1="72.55" x2="70" y2="70" stroke="url(#wlr)" stroke-width="0.8"/><line x1="3.06" y1="26.95" x2="23.8" y2="28" stroke="url(#wlr)" stroke-width="0.7"/><line x1="10.05" y1="44.45" x2="23.8" y2="28" stroke="url(#wlr)" stroke-width="0.7"/><line x1="10.05" y1="44.45" x2="40.3" y2="43" stroke="url(#wlr)" stroke-width="0.7"/><line x1="20.86" y1="57.76" x2="40.3" y2="43" stroke="url(#wlr)" stroke-width="0.7"/><line x1="20.86" y1="57.76" x2="23.8" y2="28" stroke="url(#wlr)" stroke-width="0.7"/><line x1="35.13" y1="67.25" x2="55.48" y2="56.8" stroke="url(#wlr)" stroke-width="0.7"/><line x1="35.13" y1="67.25" x2="40.3" y2="43" stroke="url(#wlr)" stroke-width="0.7"/><line x1="53.22" y1="72.55" x2="55.48" y2="56.8" stroke="url(#wlr)" stroke-width="0.7"/><line x1="4" y1="10" x2="23.8" y2="28" stroke="url(#wlr)" stroke-width="0.8"/><line x1="23.8" y1="28" x2="40.3" y2="43" stroke="url(#wlr)" stroke-width="0.8"/><line x1="40.3" y1="43" x2="55.48" y2="56.8" stroke="url(#wlr)" stroke-width="0.8"/><line x1="55.48" y1="56.8" x2="70" y2="70" stroke="url(#wlr)" stroke-width="0.8"/><line x1="0" y1="-14" x2="4" y2="10" stroke="url(#wlr)" stroke-width="0.6" stroke-opacity="0.85"/><line x1="0" y1="2" x2="4" y2="10" stroke="url(#wlr)" stroke-width="0.6" stroke-opacity="0.85"/><line x1="0" y1="18" x2="4" y2="10" stroke="url(#wlr)" stroke-width="0.6" stroke-opacity="0.85"/><line x1="0" y1="-30" x2="-8" y2="-52" stroke="#2f4d5c" stroke-width="0.8"/><line x1="-8" y1="-52" x2="-18" y2="-72" stroke="#2f4d5c" stroke-width="0.8"/><line x1="-18" y1="-72" x2="-30" y2="-84" stroke="#2f4d5c" stroke-width="0.8"/><line x1="0" y1="-30" x2="8" y2="-52" stroke="#2f4d5c" stroke-width="0.8"/><line x1="8" y1="-52" x2="18" y2="-72" stroke="#2f4d5c" stroke-width="0.8"/><line x1="18" y1="-72" x2="30" y2="-84" stroke="#2f4d5c" stroke-width="0.8"/></g><g><circle cx="-23.88" cy="-4.62" r="2.22" fill="#b7b054"/><circle cx="-41.58" cy="-3.63" r="2.37" fill="#6db27a"/><circle cx="-56.77" cy="-7.13" r="2.52" fill="#2fb39a"/><circle cx="-69.85" cy="-14.43" r="2.68" fill="#2fb39a"/><circle cx="-80.8" cy="-25.52" r="2.83" fill="#2fb39a"/><circle cx="-89.24" cy="-41.1" r="2.98" fill="#2fb39a"/><circle cx="-4.76" cy="-38.9" r="2.22" fill="#b7b054"/><circle cx="-13.2" cy="-54.48" r="2.37" fill="#6db27a"/><circle cx="-24.15" cy="-65.57" r="2.52" fill="#2fb39a"/><circle cx="-37.23" cy="-72.87" r="2.68" fill="#2fb39a"/><circle cx="-52.42" cy="-76.37" r="2.83" fill="#2fb39a"/><circle cx="-70.12" cy="-75.38" r="2.98" fill="#2fb39a"/><circle cx="-29.8" cy="-30.4" r="2.1" fill="#60b281"/><circle cx="-51.3" cy="-42.4" r="2.1" fill="#2fb39a"/><circle cx="-71.08" cy="-53.44" r="2.1" fill="#2fb39a"/><circle cx="-90" cy="-64" r="5.2" fill="#2fb39a"/><circle cx="4.76" cy="-38.9" r="2.22" fill="#b7b054"/><circle cx="13.2" cy="-54.48" r="2.37" fill="#6db27a"/><circle cx="24.15" cy="-65.57" r="2.52" fill="#2fb39a"/><circle cx="37.23" cy="-72.87" r="2.68" fill="#2fb39a"/><circle cx="52.42" cy="-76.37" r="2.83" fill="#2fb39a"/><circle cx="70.12" cy="-75.38" r="2.98" fill="#2fb39a"/><circle cx="23.88" cy="-4.62" r="2.22" fill="#b7b054"/><circle cx="41.58" cy="-3.63" r="2.37" fill="#6db27a"/><circle cx="56.77" cy="-7.13" r="2.52" fill="#2fb39a"/><circle cx="69.85" cy="-14.43" r="2.68" fill="#2fb39a"/><circle cx="80.8" cy="-25.52" r="2.83" fill="#2fb39a"/><circle cx="89.24" cy="-41.1" r="2.98" fill="#2fb39a"/><circle cx="29.8" cy="-30.4" r="2.1" fill="#60b281"/><circle cx="51.3" cy="-42.4" r="2.1" fill="#2fb39a"/><circle cx="71.08" cy="-53.44" r="2.1" fill="#2fb39a"/><circle cx="90" cy="-64" r="5.2" fill="#2fb39a"/><circle cx="-3.06" cy="26.95" r="2.22" fill="#c69d61"/><circle cx="-10.05" cy="44.45" r="2.41" fill="#849699"/><circle cx="-20.86" cy="57.76" r="2.6" fill="#6592b4"/><circle cx="-35.13" cy="67.25" r="2.79" fill="#6592b4"/><circle cx="-53.22" cy="72.55" r="2.98" fill="#6592b4"/><circle cx="-20.78" cy="7.45" r="2.22" fill="#c69d61"/><circle cx="-38.87" cy="12.75" r="2.41" fill="#849699"/><circle cx="-53.14" cy="22.24" r="2.6" fill="#6592b4"/><circle cx="-63.95" cy="35.55" r="2.79" fill="#6592b4"/><circle cx="-70.94" cy="53.05" r="2.98" fill="#6592b4"/><circle cx="-23.8" cy="28" r="2.1" fill="#889696"/><circle cx="-40.3" cy="43" r="2.1" fill="#6592b4"/><circle cx="-55.48" cy="56.8" r="2.1" fill="#6592b4"/><circle cx="-70" cy="70" r="5.2" fill="#6592b4"/><circle cx="20.78" cy="7.45" r="2.22" fill="#c69d61"/><circle cx="38.87" cy="12.75" r="2.41" fill="#849699"/><circle cx="53.14" cy="22.24" r="2.6" fill="#6592b4"/><circle cx="63.95" cy="35.55" r="2.79" fill="#6592b4"/><circle cx="70.94" cy="53.05" r="2.98" fill="#6592b4"/><circle cx="3.06" cy="26.95" r="2.22" fill="#c69d61"/><circle cx="10.05" cy="44.45" r="2.41" fill="#849699"/><circle cx="20.86" cy="57.76" r="2.6" fill="#6592b4"/><circle cx="35.13" cy="67.25" r="2.79" fill="#6592b4"/><circle cx="53.22" cy="72.55" r="2.98" fill="#6592b4"/><circle cx="23.8" cy="28" r="2.1" fill="#889696"/><circle cx="40.3" cy="43" r="2.1" fill="#6592b4"/><circle cx="55.48" cy="56.8" r="2.1" fill="#6592b4"/><circle cx="70" cy="70" r="5.2" fill="#6592b4"/><circle cx="-30" cy="-84" r="3.6" fill="#ec8e4a"/><circle cx="30" cy="-84" r="3.6" fill="#ec8e4a"/></g><g stroke-linecap="round"><line x1="0" y1="-30" x2="0" y2="-14" stroke="#2f4d5c" stroke-width="1.4"/><line x1="0" y1="-14" x2="0" y2="2" stroke="#2f4d5c" stroke-width="1.4"/><line x1="0" y1="2" x2="0" y2="18" stroke="#2f4d5c" stroke-width="1.4"/><line x1="0" y1="18" x2="0" y2="34" stroke="#2f4d5c" stroke-width="1.4"/><line x1="0" y1="34" x2="0" y2="52" stroke="#2f4d5c" stroke-width="1.4"/></g><g><circle cx="0" cy="-30" r="3.6" fill="#2f4d5c"/><circle cx="0" cy="-14" r="3.6" fill="#2f4d5c"/><circle cx="0" cy="2" r="3.6" fill="#2f4d5c"/><circle cx="0" cy="18" r="3.6" fill="#2f4d5c"/><circle cx="0" cy="34" r="3.6" fill="#2f4d5c"/><circle cx="0" cy="52" r="3" fill="#2f4d5c"/><circle cx="0" cy="-14" r="5.2" fill="#f2b632"/></g></svg>
