<svg xmlns="http://www.w3.org/2000/svg" viewBox="-102 -102 204 204" role="img" aria-label="Lily"><defs><linearGradient id="y0" gradientUnits="userSpaceOnUse" x1="0" y1="-13" x2="13.5" y2="-96.06"><stop offset="0" stop-color="#efa23e"/><stop offset="0.4" stop-color="#e65b56"/></linearGradient><linearGradient id="y1" gradientUnits="userSpaceOnUse" x1="11.26" y1="-6.5" x2="89.94" y2="-36.34"><stop offset="0" stop-color="#ec8f49"/><stop offset="0.4" stop-color="#ec7a54"/></linearGradient><linearGradient id="y2" gradientUnits="userSpaceOnUse" x1="11.26" y1="6.5" x2="76.44" y2="59.72"><stop offset="0" stop-color="#ec8f49"/><stop offset="0.4" stop-color="#e8664f"/></linearGradient><linearGradient id="y3" gradientUnits="userSpaceOnUse" x1="0" y1="13" x2="-13.5" y2="96.06"><stop offset="0" stop-color="#efa23e"/><stop offset="0.4" stop-color="#f08a5a"/></linearGradient><linearGradient id="y4" gradientUnits="userSpaceOnUse" x1="-11.26" y1="6.5" x2="-89.94" y2="36.34"><stop offset="0" stop-color="#f2b533"/><stop offset="0.4" stop-color="#e65b56"/></linearGradient><linearGradient id="y5" gradientUnits="userSpaceOnUse" x1="-11.26" y1="-6.5" x2="-76.44" y2="-59.72"><stop offset="0" stop-color="#f2b533"/><stop offset="0.4" stop-color="#ec7a54"/></linearGradient></defs><g stroke-linecap="round"><line x1="0" y1="0" x2="5" y2="-8.66" stroke="#ee9a43" stroke-width="0.7" stroke-opacity="0.85"/><line x1="5" y1="-8.66" x2="10" y2="0" stroke="#ee9a43" stroke-width="0.7" stroke-opacity="0.85"/><line x1="0" y1="0" x2="10" y2="0" stroke="#ec9148" stroke-width="0.7" stroke-opacity="0.85"/><line x1="10" y1="0" x2="5" y2="8.66" stroke="#ec9148" stroke-width="0.7" stroke-opacity="0.85"/><line x1="0" y1="0" x2="5" y2="8.66" stroke="#ee9a43" stroke-width="0.7" stroke-opacity="0.85"/><line x1="5" y1="8.66" x2="-5" y2="8.66" stroke="#ee9a43" stroke-width="0.7" stroke-opacity="0.85"/><line x1="0" y1="0" x2="-5" y2="8.66" stroke="#f0aa39" stroke-width="0.7" stroke-opacity="0.85"/><line x1="-5" y1="8.66" x2="-10" y2="0" stroke="#f0aa39" stroke-width="0.7" stroke-opacity="0.85"/><line x1="0" y1="0" x2="-10" y2="0" stroke="#f2b334" stroke-width="0.7" stroke-opacity="0.85"/><line x1="-10" y1="0" x2="-5" y2="-8.66" stroke="#f2b334" stroke-width="0.7" stroke-opacity="0.85"/><line x1="0" y1="0" x2="-5" y2="-8.66" stroke="#f0aa39" stroke-width="0.7" stroke-opacity="0.85"/><line x1="-5" y1="-8.66" x2="5" y2="-8.66" stroke="#f0aa39" stroke-width="0.7" stroke-opacity="0.85"/><line x1="0" y1="-13" x2="-3.2" y2="-23.75" stroke="url(#y0)" stroke-width="0.8"/><line x1="-3.2" y1="-23.75" x2="-5.38" y2="-37.06" stroke="url(#y0)" stroke-width="0.8"/><line x1="-5.38" y1="-37.06" x2="-5.37" y2="-50.02" stroke="url(#y0)" stroke-width="0.8"/><line x1="-5.37" y1="-50.02" x2="-2.81" y2="-62.56" stroke="url(#y0)" stroke-width="0.8"/><line x1="-2.81" y1="-62.56" x2="2.29" y2="-74.69" stroke="url(#y0)" stroke-width="0.8"/><line x1="2.29" y1="-74.69" x2="9.58" y2="-86.46" stroke="url(#y0)" stroke-width="0.8"/><line x1="9.58" y1="-86.46" x2="16.82" y2="-95.52" stroke="url(#y0)" stroke-width="0.8"/><line x1="-3.2" y1="-23.75" x2="5.05" y2="-37.75" stroke="url(#y0)" stroke-width="0.7"/><line x1="-5.38" y1="-37.06" x2="5.05" y2="-37.75" stroke="url(#y0)" stroke-width="0.7"/><line x1="-5.38" y1="-37.06" x2="9.25" y2="-58.38" stroke="url(#y0)" stroke-width="0.7"/><line x1="-5.37" y1="-50.02" x2="5.05" y2="-37.75" stroke="url(#y0)" stroke-width="0.7"/><line x1="-5.37" y1="-50.02" x2="9.25" y2="-58.38" stroke="url(#y0)" stroke-width="0.7"/><line x1="-2.81" y1="-62.56" x2="9.25" y2="-58.38" stroke="url(#y0)" stroke-width="0.7"/><line x1="-2.81" y1="-62.56" x2="13.12" y2="-77.36" stroke="url(#y0)" stroke-width="0.7"/><line x1="2.29" y1="-74.69" x2="13.12" y2="-77.36" stroke="url(#y0)" stroke-width="0.7"/><line x1="2.29" y1="-74.69" x2="9.25" y2="-58.38" stroke="url(#y0)" stroke-width="0.7"/><line x1="9.58" y1="-86.46" x2="13.12" y2="-77.36" stroke="url(#y0)" stroke-width="0.7"/><line x1="0" y1="-13" x2="7.24" y2="-22.05" stroke="url(#y0)" stroke-width="0.8"/><line x1="7.24" y1="-22.05" x2="14.53" y2="-33.83" stroke="url(#y0)" stroke-width="0.8"/><line x1="14.53" y1="-33.83" x2="19.64" y2="-45.95" stroke="url(#y0)" stroke-width="0.8"/><line x1="19.64" y1="-45.95" x2="22.19" y2="-58.5" stroke="url(#y0)" stroke-width="0.8"/><line x1="22.19" y1="-58.5" x2="22.2" y2="-71.45" stroke="url(#y0)" stroke-width="0.8"/><line x1="22.2" y1="-71.45" x2="20.02" y2="-84.77" stroke="url(#y0)" stroke-width="0.8"/><line x1="20.02" y1="-84.77" x2="16.82" y2="-95.52" stroke="url(#y0)" stroke-width="0.8"/><line x1="7.24" y1="-22.05" x2="5.05" y2="-37.75" stroke="url(#y0)" stroke-width="0.7"/><line x1="14.53" y1="-33.83" x2="5.05" y2="-37.75" stroke="url(#y0)" stroke-width="0.7"/><line x1="14.53" y1="-33.83" x2="9.25" y2="-58.38" stroke="url(#y0)" stroke-width="0.7"/><line x1="19.64" y1="-45.95" x2="5.05" y2="-37.75" stroke="url(#y0)" stroke-width="0.7"/><line x1="19.64" y1="-45.95" x2="9.25" y2="-58.38" stroke="url(#y0)" stroke-width="0.7"/><line x1="22.19" y1="-58.5" x2="9.25" y2="-58.38" stroke="url(#y0)" stroke-width="0.7"/><line x1="22.19" y1="-58.5" x2="13.12" y2="-77.36" stroke="url(#y0)" stroke-width="0.7"/><line x1="22.2" y1="-71.45" x2="13.12" y2="-77.36" stroke="url(#y0)" stroke-width="0.7"/><line x1="22.2" y1="-71.45" x2="9.25" y2="-58.38" stroke="url(#y0)" stroke-width="0.7"/><line x1="20.02" y1="-84.77" x2="13.12" y2="-77.36" stroke="url(#y0)" stroke-width="0.7"/><line x1="0" y1="-13" x2="5.05" y2="-37.75" stroke="url(#y0)" stroke-width="0.8"/><line x1="5.05" y1="-37.75" x2="9.25" y2="-58.38" stroke="url(#y0)" stroke-width="0.8"/><line x1="9.25" y1="-58.38" x2="13.12" y2="-77.36" stroke="url(#y0)" stroke-width="0.8"/><line x1="13.12" y1="-77.36" x2="16.82" y2="-95.52" stroke="url(#y0)" stroke-width="0.8"/><line x1="5" y1="-8.66" x2="0" y2="-13" stroke="url(#y0)" stroke-width="0.6" stroke-opacity="0.85"/><line x1="-5" y1="-8.66" x2="0" y2="-13" stroke="url(#y0)" stroke-width="0.6" stroke-opacity="0.85"/><line x1="11.26" y1="-6.5" x2="18.97" y2="-14.65" stroke="url(#y1)" stroke-width="0.8"/><line x1="18.97" y1="-14.65" x2="29.41" y2="-23.19" stroke="url(#y1)" stroke-width="0.8"/><line x1="29.41" y1="-23.19" x2="40.63" y2="-29.66" stroke="url(#y1)" stroke-width="0.8"/><line x1="40.63" y1="-29.66" x2="52.77" y2="-33.72" stroke="url(#y1)" stroke-width="0.8"/><line x1="52.77" y1="-33.72" x2="65.83" y2="-35.36" stroke="url(#y1)" stroke-width="0.8"/><line x1="65.83" y1="-35.36" x2="79.67" y2="-34.93" stroke="url(#y1)" stroke-width="0.8"/><line x1="79.67" y1="-34.93" x2="91.13" y2="-33.19" stroke="url(#y1)" stroke-width="0.8"/><line x1="18.97" y1="-14.65" x2="35.22" y2="-14.51" stroke="url(#y1)" stroke-width="0.7"/><line x1="29.41" y1="-23.19" x2="35.22" y2="-14.51" stroke="url(#y1)" stroke-width="0.7"/><line x1="29.41" y1="-23.19" x2="55.19" y2="-21.18" stroke="url(#y1)" stroke-width="0.7"/><line x1="40.63" y1="-29.66" x2="35.22" y2="-14.51" stroke="url(#y1)" stroke-width="0.7"/><line x1="40.63" y1="-29.66" x2="55.19" y2="-21.18" stroke="url(#y1)" stroke-width="0.7"/><line x1="52.77" y1="-33.72" x2="55.19" y2="-21.18" stroke="url(#y1)" stroke-width="0.7"/><line x1="52.77" y1="-33.72" x2="73.56" y2="-27.32" stroke="url(#y1)" stroke-width="0.7"/><line x1="65.83" y1="-35.36" x2="73.56" y2="-27.32" stroke="url(#y1)" stroke-width="0.7"/><line x1="65.83" y1="-35.36" x2="55.19" y2="-21.18" stroke="url(#y1)" stroke-width="0.7"/><line x1="79.67" y1="-34.93" x2="73.56" y2="-27.32" stroke="url(#y1)" stroke-width="0.7"/><line x1="11.26" y1="-6.5" x2="22.72" y2="-4.76" stroke="url(#y1)" stroke-width="0.8"/><line x1="22.72" y1="-4.76" x2="36.56" y2="-4.33" stroke="url(#y1)" stroke-width="0.8"/><line x1="36.56" y1="-4.33" x2="49.62" y2="-5.97" stroke="url(#y1)" stroke-width="0.8"/><line x1="49.62" y1="-5.97" x2="61.76" y2="-10.03" stroke="url(#y1)" stroke-width="0.8"/><line x1="61.76" y1="-10.03" x2="72.98" y2="-16.5" stroke="url(#y1)" stroke-width="0.8"/><line x1="72.98" y1="-16.5" x2="83.42" y2="-25.04" stroke="url(#y1)" stroke-width="0.8"/><line x1="83.42" y1="-25.04" x2="91.13" y2="-33.19" stroke="url(#y1)" stroke-width="0.8"/><line x1="22.72" y1="-4.76" x2="35.22" y2="-14.51" stroke="url(#y1)" stroke-width="0.7"/><line x1="36.56" y1="-4.33" x2="35.22" y2="-14.51" stroke="url(#y1)" stroke-width="0.7"/><line x1="36.56" y1="-4.33" x2="55.19" y2="-21.18" stroke="url(#y1)" stroke-width="0.7"/><line x1="49.62" y1="-5.97" x2="35.22" y2="-14.51" stroke="url(#y1)" stroke-width="0.7"/><line x1="49.62" y1="-5.97" x2="55.19" y2="-21.18" stroke="url(#y1)" stroke-width="0.7"/><line x1="61.76" y1="-10.03" x2="55.19" y2="-21.18" stroke="url(#y1)" stroke-width="0.7"/><line x1="61.76" y1="-10.03" x2="73.56" y2="-27.32" stroke="url(#y1)" stroke-width="0.7"/><line x1="72.98" y1="-16.5" x2="73.56" y2="-27.32" stroke="url(#y1)" stroke-width="0.7"/><line x1="72.98" y1="-16.5" x2="55.19" y2="-21.18" stroke="url(#y1)" stroke-width="0.7"/><line x1="83.42" y1="-25.04" x2="73.56" y2="-27.32" stroke="url(#y1)" stroke-width="0.7"/><line x1="11.26" y1="-6.5" x2="35.22" y2="-14.51" stroke="url(#y1)" stroke-width="0.8"/><line x1="35.22" y1="-14.51" x2="55.19" y2="-21.18" stroke="url(#y1)" stroke-width="0.8"/><line x1="55.19" y1="-21.18" x2="73.56" y2="-27.32" stroke="url(#y1)" stroke-width="0.8"/><line x1="73.56" y1="-27.32" x2="91.13" y2="-33.19" stroke="url(#y1)" stroke-width="0.8"/><line x1="10" y1="0" x2="11.26" y2="-6.5" stroke="url(#y1)" stroke-width="0.6" stroke-opacity="0.85"/><line x1="5" y1="-8.66" x2="11.26" y2="-6.5" stroke="url(#y1)" stroke-width="0.6" stroke-opacity="0.85"/><line x1="11.26" y1="6.5" x2="22.17" y2="9.1" stroke="url(#y2)" stroke-width="0.8"/><line x1="22.17" y1="9.1" x2="34.79" y2="13.87" stroke="url(#y2)" stroke-width="0.8"/><line x1="34.79" y1="13.87" x2="46" y2="20.36" stroke="url(#y2)" stroke-width="0.8"/><line x1="46" y1="20.36" x2="55.59" y2="28.84" stroke="url(#y2)" stroke-width="0.8"/><line x1="55.59" y1="28.84" x2="63.54" y2="39.33" stroke="url(#y2)" stroke-width="0.8"/><line x1="63.54" y1="39.33" x2="70.09" y2="51.53" stroke="url(#y2)" stroke-width="0.8"/><line x1="70.09" y1="51.53" x2="74.31" y2="62.33" stroke="url(#y2)" stroke-width="0.8"/><line x1="22.17" y1="9.1" x2="30.17" y2="23.25" stroke="url(#y2)" stroke-width="0.7"/><line x1="34.79" y1="13.87" x2="30.17" y2="23.25" stroke="url(#y2)" stroke-width="0.7"/><line x1="34.79" y1="13.87" x2="45.94" y2="37.2" stroke="url(#y2)" stroke-width="0.7"/><line x1="46" y1="20.36" x2="30.17" y2="23.25" stroke="url(#y2)" stroke-width="0.7"/><line x1="46" y1="20.36" x2="45.94" y2="37.2" stroke="url(#y2)" stroke-width="0.7"/><line x1="55.59" y1="28.84" x2="45.94" y2="37.2" stroke="url(#y2)" stroke-width="0.7"/><line x1="55.59" y1="28.84" x2="60.44" y2="50.04" stroke="url(#y2)" stroke-width="0.7"/><line x1="63.54" y1="39.33" x2="60.44" y2="50.04" stroke="url(#y2)" stroke-width="0.7"/><line x1="63.54" y1="39.33" x2="45.94" y2="37.2" stroke="url(#y2)" stroke-width="0.7"/><line x1="70.09" y1="51.53" x2="60.44" y2="50.04" stroke="url(#y2)" stroke-width="0.7"/><line x1="11.26" y1="6.5" x2="15.48" y2="17.3" stroke="url(#y2)" stroke-width="0.8"/><line x1="15.48" y1="17.3" x2="22.03" y2="29.5" stroke="url(#y2)" stroke-width="0.8"/><line x1="22.03" y1="29.5" x2="29.98" y2="39.98" stroke="url(#y2)" stroke-width="0.8"/><line x1="29.98" y1="39.98" x2="39.56" y2="48.47" stroke="url(#y2)" stroke-width="0.8"/><line x1="39.56" y1="48.47" x2="50.78" y2="54.95" stroke="url(#y2)" stroke-width="0.8"/><line x1="50.78" y1="54.95" x2="63.4" y2="59.72" stroke="url(#y2)" stroke-width="0.8"/><line x1="63.4" y1="59.72" x2="74.31" y2="62.33" stroke="url(#y2)" stroke-width="0.8"/><line x1="15.48" y1="17.3" x2="30.17" y2="23.25" stroke="url(#y2)" stroke-width="0.7"/><line x1="22.03" y1="29.5" x2="30.17" y2="23.25" stroke="url(#y2)" stroke-width="0.7"/><line x1="22.03" y1="29.5" x2="45.94" y2="37.2" stroke="url(#y2)" stroke-width="0.7"/><line x1="29.98" y1="39.98" x2="30.17" y2="23.25" stroke="url(#y2)" stroke-width="0.7"/><line x1="29.98" y1="39.98" x2="45.94" y2="37.2" stroke="url(#y2)" stroke-width="0.7"/><line x1="39.56" y1="48.47" x2="45.94" y2="37.2" stroke="url(#y2)" stroke-width="0.7"/><line x1="39.56" y1="48.47" x2="60.44" y2="50.04" stroke="url(#y2)" stroke-width="0.7"/><line x1="50.78" y1="54.95" x2="60.44" y2="50.04" stroke="url(#y2)" stroke-width="0.7"/><line x1="50.78" y1="54.95" x2="45.94" y2="37.2" stroke="url(#y2)" stroke-width="0.7"/><line x1="63.4" y1="59.72" x2="60.44" y2="50.04" stroke="url(#y2)" stroke-width="0.7"/><line x1="11.26" y1="6.5" x2="30.17" y2="23.25" stroke="url(#y2)" stroke-width="0.8"/><line x1="30.17" y1="23.25" x2="45.94" y2="37.2" stroke="url(#y2)" stroke-width="0.8"/><line x1="45.94" y1="37.2" x2="60.44" y2="50.04" stroke="url(#y2)" stroke-width="0.8"/><line x1="60.44" y1="50.04" x2="74.31" y2="62.33" stroke="url(#y2)" stroke-width="0.8"/><line x1="10" y1="0" x2="11.26" y2="6.5" stroke="url(#y2)" stroke-width="0.6" stroke-opacity="0.85"/><line x1="5" y1="8.66" x2="11.26" y2="6.5" stroke="url(#y2)" stroke-width="0.6" stroke-opacity="0.85"/><line x1="0" y1="13" x2="3.2" y2="23.75" stroke="url(#y3)" stroke-width="0.8"/><line x1="3.2" y1="23.75" x2="5.38" y2="37.06" stroke="url(#y3)" stroke-width="0.8"/><line x1="5.38" y1="37.06" x2="5.37" y2="50.02" stroke="url(#y3)" stroke-width="0.8"/><line x1="5.37" y1="50.02" x2="2.81" y2="62.56" stroke="url(#y3)" stroke-width="0.8"/><line x1="2.81" y1="62.56" x2="-2.29" y2="74.69" stroke="url(#y3)" stroke-width="0.8"/><line x1="-2.29" y1="74.69" x2="-9.58" y2="86.46" stroke="url(#y3)" stroke-width="0.8"/><line x1="-9.58" y1="86.46" x2="-16.82" y2="95.52" stroke="url(#y3)" stroke-width="0.8"/><line x1="3.2" y1="23.75" x2="-5.05" y2="37.75" stroke="url(#y3)" stroke-width="0.7"/><line x1="5.38" y1="37.06" x2="-5.05" y2="37.75" stroke="url(#y3)" stroke-width="0.7"/><line x1="5.38" y1="37.06" x2="-9.25" y2="58.38" stroke="url(#y3)" stroke-width="0.7"/><line x1="5.37" y1="50.02" x2="-5.05" y2="37.75" stroke="url(#y3)" stroke-width="0.7"/><line x1="5.37" y1="50.02" x2="-9.25" y2="58.38" stroke="url(#y3)" stroke-width="0.7"/><line x1="2.81" y1="62.56" x2="-9.25" y2="58.38" stroke="url(#y3)" stroke-width="0.7"/><line x1="2.81" y1="62.56" x2="-13.12" y2="77.36" stroke="url(#y3)" stroke-width="0.7"/><line x1="-2.29" y1="74.69" x2="-13.12" y2="77.36" stroke="url(#y3)" stroke-width="0.7"/><line x1="-2.29" y1="74.69" x2="-9.25" y2="58.38" stroke="url(#y3)" stroke-width="0.7"/><line x1="-9.58" y1="86.46" x2="-13.12" y2="77.36" stroke="url(#y3)" stroke-width="0.7"/><line x1="0" y1="13" x2="-7.24" y2="22.05" stroke="url(#y3)" stroke-width="0.8"/><line x1="-7.24" y1="22.05" x2="-14.53" y2="33.83" stroke="url(#y3)" stroke-width="0.8"/><line x1="-14.53" y1="33.83" x2="-19.64" y2="45.95" stroke="url(#y3)" stroke-width="0.8"/><line x1="-19.64" y1="45.95" x2="-22.19" y2="58.5" stroke="url(#y3)" stroke-width="0.8"/><line x1="-22.19" y1="58.5" x2="-22.2" y2="71.45" stroke="url(#y3)" stroke-width="0.8"/><line x1="-22.2" y1="71.45" x2="-20.02" y2="84.77" stroke="url(#y3)" stroke-width="0.8"/><line x1="-20.02" y1="84.77" x2="-16.82" y2="95.52" stroke="url(#y3)" stroke-width="0.8"/><line x1="-7.24" y1="22.05" x2="-5.05" y2="37.75" stroke="url(#y3)" stroke-width="0.7"/><line x1="-14.53" y1="33.83" x2="-5.05" y2="37.75" stroke="url(#y3)" stroke-width="0.7"/><line x1="-14.53" y1="33.83" x2="-9.25" y2="58.38" stroke="url(#y3)" stroke-width="0.7"/><line x1="-19.64" y1="45.95" x2="-5.05" y2="37.75" stroke="url(#y3)" stroke-width="0.7"/><line x1="-19.64" y1="45.95" x2="-9.25" y2="58.38" stroke="url(#y3)" stroke-width="0.7"/><line x1="-22.19" y1="58.5" x2="-9.25" y2="58.38" stroke="url(#y3)" stroke-width="0.7"/><line x1="-22.19" y1="58.5" x2="-13.12" y2="77.36" stroke="url(#y3)" stroke-width="0.7"/><line x1="-22.2" y1="71.45" x2="-13.12" y2="77.36" stroke="url(#y3)" stroke-width="0.7"/><line x1="-22.2" y1="71.45" x2="-9.25" y2="58.38" stroke="url(#y3)" stroke-width="0.7"/><line x1="-20.02" y1="84.77" x2="-13.12" y2="77.36" stroke="url(#y3)" stroke-width="0.7"/><line x1="0" y1="13" x2="-5.05" y2="37.75" stroke="url(#y3)" stroke-width="0.8"/><line x1="-5.05" y1="37.75" x2="-9.25" y2="58.38" stroke="url(#y3)" stroke-width="0.8"/><line x1="-9.25" y1="58.38" x2="-13.12" y2="77.36" stroke="url(#y3)" stroke-width="0.8"/><line x1="-13.12" y1="77.36" x2="-16.82" y2="95.52" stroke="url(#y3)" stroke-width="0.8"/><line x1="-5" y1="8.66" x2="0" y2="13" stroke="url(#y3)" stroke-width="0.6" stroke-opacity="0.85"/><line x1="5" y1="8.66" x2="0" y2="13" stroke="url(#y3)" stroke-width="0.6" stroke-opacity="0.85"/><line x1="-11.26" y1="6.5" x2="-18.97" y2="14.65" stroke="url(#y4)" stroke-width="0.8"/><line x1="-18.97" y1="14.65" x2="-29.41" y2="23.19" stroke="url(#y4)" stroke-width="0.8"/><line x1="-29.41" y1="23.19" x2="-40.63" y2="29.66" stroke="url(#y4)" stroke-width="0.8"/><line x1="-40.63" y1="29.66" x2="-52.77" y2="33.72" stroke="url(#y4)" stroke-width="0.8"/><line x1="-52.77" y1="33.72" x2="-65.83" y2="35.36" stroke="url(#y4)" stroke-width="0.8"/><line x1="-65.83" y1="35.36" x2="-79.67" y2="34.93" stroke="url(#y4)" stroke-width="0.8"/><line x1="-79.67" y1="34.93" x2="-91.13" y2="33.19" stroke="url(#y4)" stroke-width="0.8"/><line x1="-18.97" y1="14.65" x2="-35.22" y2="14.51" stroke="url(#y4)" stroke-width="0.7"/><line x1="-29.41" y1="23.19" x2="-35.22" y2="14.51" stroke="url(#y4)" stroke-width="0.7"/><line x1="-29.41" y1="23.19" x2="-55.19" y2="21.18" stroke="url(#y4)" stroke-width="0.7"/><line x1="-40.63" y1="29.66" x2="-35.22" y2="14.51" stroke="url(#y4)" stroke-width="0.7"/><line x1="-40.63" y1="29.66" x2="-55.19" y2="21.18" stroke="url(#y4)" stroke-width="0.7"/><line x1="-52.77" y1="33.72" x2="-55.19" y2="21.18" stroke="url(#y4)" stroke-width="0.7"/><line x1="-52.77" y1="33.72" x2="-73.56" y2="27.32" stroke="url(#y4)" stroke-width="0.7"/><line x1="-65.83" y1="35.36" x2="-73.56" y2="27.32" stroke="url(#y4)" stroke-width="0.7"/><line x1="-65.83" y1="35.36" x2="-55.19" y2="21.18" stroke="url(#y4)" stroke-width="0.7"/><line x1="-79.67" y1="34.93" x2="-73.56" y2="27.32" stroke="url(#y4)" stroke-width="0.7"/><line x1="-11.26" y1="6.5" x2="-22.72" y2="4.76" stroke="url(#y4)" stroke-width="0.8"/><line x1="-22.72" y1="4.76" x2="-36.56" y2="4.33" stroke="url(#y4)" stroke-width="0.8"/><line x1="-36.56" y1="4.33" x2="-49.62" y2="5.97" stroke="url(#y4)" stroke-width="0.8"/><line x1="-49.62" y1="5.97" x2="-61.76" y2="10.03" stroke="url(#y4)" stroke-width="0.8"/><line x1="-61.76" y1="10.03" x2="-72.98" y2="16.5" stroke="url(#y4)" stroke-width="0.8"/><line x1="-72.98" y1="16.5" x2="-83.42" y2="25.04" stroke="url(#y4)" stroke-width="0.8"/><line x1="-83.42" y1="25.04" x2="-91.13" y2="33.19" stroke="url(#y4)" stroke-width="0.8"/><line x1="-22.72" y1="4.76" x2="-35.22" y2="14.51" stroke="url(#y4)" stroke-width="0.7"/><line x1="-36.56" y1="4.33" x2="-35.22" y2="14.51" stroke="url(#y4)" stroke-width="0.7"/><line x1="-36.56" y1="4.33" x2="-55.19" y2="21.18" stroke="url(#y4)" stroke-width="0.7"/><line x1="-49.62" y1="5.97" x2="-35.22" y2="14.51" stroke="url(#y4)" stroke-width="0.7"/><line x1="-49.62" y1="5.97" x2="-55.19" y2="21.18" stroke="url(#y4)" stroke-width="0.7"/><line x1="-61.76" y1="10.03" x2="-55.19" y2="21.18" stroke="url(#y4)" stroke-width="0.7"/><line x1="-61.76" y1="10.03" x2="-73.56" y2="27.32" stroke="url(#y4)" stroke-width="0.7"/><line x1="-72.98" y1="16.5" x2="-73.56" y2="27.32" stroke="url(#y4)" stroke-width="0.7"/><line x1="-72.98" y1="16.5" x2="-55.19" y2="21.18" stroke="url(#y4)" stroke-width="0.7"/><line x1="-83.42" y1="25.04" x2="-73.56" y2="27.32" stroke="url(#y4)" stroke-width="0.7"/><line x1="-11.26" y1="6.5" x2="-35.22" y2="14.51" stroke="url(#y4)" stroke-width="0.8"/><line x1="-35.22" y1="14.51" x2="-55.19" y2="21.18" stroke="url(#y4)" stroke-width="0.8"/><line x1="-55.19" y1="21.18" x2="-73.56" y2="27.32" stroke="url(#y4)" stroke-width="0.8"/><line x1="-73.56" y1="27.32" x2="-91.13" y2="33.19" stroke="url(#y4)" stroke-width="0.8"/><line x1="-10" y1="0" x2="-11.26" y2="6.5" stroke="url(#y4)" stroke-width="0.6" stroke-opacity="0.85"/><line x1="-5" y1="8.66" x2="-11.26" y2="6.5" stroke="url(#y4)" stroke-width="0.6" stroke-opacity="0.85"/><line x1="-11.26" y1="-6.5" x2="-22.17" y2="-9.1" stroke="url(#y5)" stroke-width="0.8"/><line x1="-22.17" y1="-9.1" x2="-34.79" y2="-13.87" stroke="url(#y5)" stroke-width="0.8"/><line x1="-34.79" y1="-13.87" x2="-46" y2="-20.36" stroke="url(#y5)" stroke-width="0.8"/><line x1="-46" y1="-20.36" x2="-55.59" y2="-28.84" stroke="url(#y5)" stroke-width="0.8"/><line x1="-55.59" y1="-28.84" x2="-63.54" y2="-39.33" stroke="url(#y5)" stroke-width="0.8"/><line x1="-63.54" y1="-39.33" x2="-70.09" y2="-51.53" stroke="url(#y5)" stroke-width="0.8"/><line x1="-70.09" y1="-51.53" x2="-74.31" y2="-62.33" stroke="url(#y5)" stroke-width="0.8"/><line x1="-22.17" y1="-9.1" x2="-30.17" y2="-23.25" stroke="url(#y5)" stroke-width="0.7"/><line x1="-34.79" y1="-13.87" x2="-30.17" y2="-23.25" stroke="url(#y5)" stroke-width="0.7"/><line x1="-34.79" y1="-13.87" x2="-45.94" y2="-37.2" stroke="url(#y5)" stroke-width="0.7"/><line x1="-46" y1="-20.36" x2="-30.17" y2="-23.25" stroke="url(#y5)" stroke-width="0.7"/><line x1="-46" y1="-20.36" x2="-45.94" y2="-37.2" stroke="url(#y5)" stroke-width="0.7"/><line x1="-55.59" y1="-28.84" x2="-45.94" y2="-37.2" stroke="url(#y5)" stroke-width="0.7"/><line x1="-55.59" y1="-28.84" x2="-60.44" y2="-50.04" stroke="url(#y5)" stroke-width="0.7"/><line x1="-63.54" y1="-39.33" x2="-60.44" y2="-50.04" stroke="url(#y5)" stroke-width="0.7"/><line x1="-63.54" y1="-39.33" x2="-45.94" y2="-37.2" stroke="url(#y5)" stroke-width="0.7"/><line x1="-70.09" y1="-51.53" x2="-60.44" y2="-50.04" stroke="url(#y5)" stroke-width="0.7"/><line x1="-11.26" y1="-6.5" x2="-15.48" y2="-17.3" stroke="url(#y5)" stroke-width="0.8"/><line x1="-15.48" y1="-17.3" x2="-22.03" y2="-29.5" stroke="url(#y5)" stroke-width="0.8"/><line x1="-22.03" y1="-29.5" x2="-29.98" y2="-39.98" stroke="url(#y5)" stroke-width="0.8"/><line x1="-29.98" y1="-39.98" x2="-39.56" y2="-48.47" stroke="url(#y5)" stroke-width="0.8"/><line x1="-39.56" y1="-48.47" x2="-50.78" y2="-54.95" stroke="url(#y5)" stroke-width="0.8"/><line x1="-50.78" y1="-54.95" x2="-63.4" y2="-59.72" stroke="url(#y5)" stroke-width="0.8"/><line x1="-63.4" y1="-59.72" x2="-74.31" y2="-62.33" stroke="url(#y5)" stroke-width="0.8"/><line x1="-15.48" y1="-17.3" x2="-30.17" y2="-23.25" stroke="url(#y5)" stroke-width="0.7"/><line x1="-22.03" y1="-29.5" x2="-30.17" y2="-23.25" stroke="url(#y5)" stroke-width="0.7"/><line x1="-22.03" y1="-29.5" x2="-45.94" y2="-37.2" stroke="url(#y5)" stroke-width="0.7"/><line x1="-29.98" y1="-39.98" x2="-30.17" y2="-23.25" stroke="url(#y5)" stroke-width="0.7"/><line x1="-29.98" y1="-39.98" x2="-45.94" y2="-37.2" stroke="url(#y5)" stroke-width="0.7"/><line x1="-39.56" y1="-48.47" x2="-45.94" y2="-37.2" stroke="url(#y5)" stroke-width="0.7"/><line x1="-39.56" y1="-48.47" x2="-60.44" y2="-50.04" stroke="url(#y5)" stroke-width="0.7"/><line x1="-50.78" y1="-54.95" x2="-60.44" y2="-50.04" stroke="url(#y5)" stroke-width="0.7"/><line x1="-50.78" y1="-54.95" x2="-45.94" y2="-37.2" stroke="url(#y5)" stroke-width="0.7"/><line x1="-63.4" y1="-59.72" x2="-60.44" y2="-50.04" stroke="url(#y5)" stroke-width="0.7"/><line x1="-11.26" y1="-6.5" x2="-30.17" y2="-23.25" stroke="url(#y5)" stroke-width="0.8"/><line x1="-30.17" y1="-23.25" x2="-45.94" y2="-37.2" stroke="url(#y5)" stroke-width="0.8"/><line x1="-45.94" y1="-37.2" x2="-60.44" y2="-50.04" stroke="url(#y5)" stroke-width="0.8"/><line x1="-60.44" y1="-50.04" x2="-74.31" y2="-62.33" stroke="url(#y5)" stroke-width="0.8"/><line x1="-5" y1="-8.66" x2="-11.26" y2="-6.5" stroke="url(#y5)" stroke-width="0.6" stroke-opacity="0.85"/><line x1="-10" y1="0" x2="-11.26" y2="-6.5" stroke="url(#y5)" stroke-width="0.6" stroke-opacity="0.85"/></g><g><circle cx="-3.2" cy="-23.75" r="2.1" fill="#ec8d45"/><circle cx="-5.38" cy="-37.06" r="2.22" fill="#e9724e"/><circle cx="-5.37" cy="-50.02" r="2.34" fill="#e65b56"/><circle cx="-2.81" cy="-62.56" r="2.46" fill="#e65b56"/><circle cx="2.29" cy="-74.69" r="2.58" fill="#e65b56"/><circle cx="9.58" cy="-86.46" r="2.7" fill="#e65b56"/><circle cx="7.24" cy="-22.05" r="2.1" fill="#ec8d45"/><circle cx="14.53" cy="-33.83" r="2.22" fill="#e9724e"/><circle cx="19.64" cy="-45.95" r="2.34" fill="#e65b56"/><circle cx="22.19" cy="-58.5" r="2.46" fill="#e65b56"/><circle cx="22.2" cy="-71.45" r="2.58" fill="#e65b56"/><circle cx="20.02" cy="-84.77" r="2.7" fill="#e65b56"/><circle cx="5.05" cy="-37.75" r="2" fill="#e86d50"/><circle cx="9.25" cy="-58.38" r="2" fill="#e65b56"/><circle cx="13.12" cy="-77.36" r="2" fill="#e65b56"/><circle cx="16.82" cy="-95.52" r="4.6" fill="#e65b56"/><circle cx="18.97" cy="-14.65" r="2.1" fill="#ec894c"/><circle cx="29.41" cy="-23.19" r="2.22" fill="#ec8150"/><circle cx="40.63" cy="-29.66" r="2.34" fill="#ec7a54"/><circle cx="52.77" cy="-33.72" r="2.46" fill="#ec7a54"/><circle cx="65.83" cy="-35.36" r="2.58" fill="#ec7a54"/><circle cx="79.67" cy="-34.93" r="2.7" fill="#ec7a54"/><circle cx="22.72" cy="-4.76" r="2.1" fill="#ec894c"/><circle cx="36.56" cy="-4.33" r="2.22" fill="#ec8150"/><circle cx="49.62" cy="-5.97" r="2.34" fill="#ec7a54"/><circle cx="61.76" cy="-10.03" r="2.46" fill="#ec7a54"/><circle cx="72.98" cy="-16.5" r="2.58" fill="#ec7a54"/><circle cx="83.42" cy="-25.04" r="2.7" fill="#ec7a54"/><circle cx="35.22" cy="-14.51" r="2" fill="#ec7f51"/><circle cx="55.19" cy="-21.18" r="2" fill="#ec7a54"/><circle cx="73.56" cy="-27.32" r="2" fill="#ec7a54"/><circle cx="91.13" cy="-33.19" r="4.6" fill="#ec7a54"/><circle cx="22.17" cy="9.1" r="2.1" fill="#eb834b"/><circle cx="34.79" cy="13.87" r="2.22" fill="#e9734d"/><circle cx="46" cy="20.36" r="2.34" fill="#e8664f"/><circle cx="55.59" cy="28.84" r="2.46" fill="#e8664f"/><circle cx="63.54" cy="39.33" r="2.58" fill="#e8664f"/><circle cx="70.09" cy="51.53" r="2.7" fill="#e8664f"/><circle cx="15.48" cy="17.3" r="2.1" fill="#eb834b"/><circle cx="22.03" cy="29.5" r="2.22" fill="#e9734d"/><circle cx="29.98" cy="39.98" r="2.34" fill="#e8664f"/><circle cx="39.56" cy="48.47" r="2.46" fill="#e8664f"/><circle cx="50.78" cy="54.95" r="2.58" fill="#e8664f"/><circle cx="63.4" cy="59.72" r="2.7" fill="#e8664f"/><circle cx="30.17" cy="23.25" r="2" fill="#e9704e"/><circle cx="45.94" cy="37.2" r="2" fill="#e8664f"/><circle cx="60.44" cy="50.04" r="2" fill="#e8664f"/><circle cx="74.31" cy="62.33" r="4.6" fill="#e8664f"/><circle cx="3.2" cy="23.75" r="2.1" fill="#ef9b46"/><circle cx="5.38" cy="37.06" r="2.22" fill="#f09251"/><circle cx="5.37" cy="50.02" r="2.34" fill="#f08a5a"/><circle cx="2.81" cy="62.56" r="2.46" fill="#f08a5a"/><circle cx="-2.29" cy="74.69" r="2.58" fill="#f08a5a"/><circle cx="-9.58" cy="86.46" r="2.7" fill="#f08a5a"/><circle cx="-7.24" cy="22.05" r="2.1" fill="#ef9b46"/><circle cx="-14.53" cy="33.83" r="2.22" fill="#f09251"/><circle cx="-19.64" cy="45.95" r="2.34" fill="#f08a5a"/><circle cx="-22.19" cy="58.5" r="2.46" fill="#f08a5a"/><circle cx="-22.2" cy="71.45" r="2.58" fill="#f08a5a"/><circle cx="-20.02" cy="84.77" r="2.7" fill="#f08a5a"/><circle cx="-5.05" cy="37.75" r="2" fill="#f09053"/><circle cx="-9.25" cy="58.38" r="2" fill="#f08a5a"/><circle cx="-13.12" cy="77.36" r="2" fill="#f08a5a"/><circle cx="-16.82" cy="95.52" r="4.6" fill="#f08a5a"/><circle cx="-18.97" cy="14.65" r="2.1" fill="#ee9a3e"/><circle cx="-29.41" cy="23.19" r="2.22" fill="#ea784b"/><circle cx="-40.63" cy="29.66" r="2.34" fill="#e65b56"/><circle cx="-52.77" cy="33.72" r="2.46" fill="#e65b56"/><circle cx="-65.83" cy="35.36" r="2.58" fill="#e65b56"/><circle cx="-79.67" cy="34.93" r="2.7" fill="#e65b56"/><circle cx="-22.72" cy="4.76" r="2.1" fill="#ee9a3e"/><circle cx="-36.56" cy="4.33" r="2.22" fill="#ea784b"/><circle cx="-49.62" cy="5.97" r="2.34" fill="#e65b56"/><circle cx="-61.76" cy="10.03" r="2.46" fill="#e65b56"/><circle cx="-72.98" cy="16.5" r="2.58" fill="#e65b56"/><circle cx="-83.42" cy="25.04" r="2.7" fill="#e65b56"/><circle cx="-35.22" cy="14.51" r="2" fill="#e9724d"/><circle cx="-55.19" cy="21.18" r="2" fill="#e65b56"/><circle cx="-73.56" cy="27.32" r="2" fill="#e65b56"/><circle cx="-91.13" cy="33.19" r="4.6" fill="#e65b56"/><circle cx="-22.17" cy="-9.1" r="2.1" fill="#f0a33d"/><circle cx="-34.79" cy="-13.87" r="2.22" fill="#ee8d49"/><circle cx="-46" cy="-20.36" r="2.34" fill="#ec7a54"/><circle cx="-55.59" cy="-28.84" r="2.46" fill="#ec7a54"/><circle cx="-63.54" cy="-39.33" r="2.58" fill="#ec7a54"/><circle cx="-70.09" cy="-51.53" r="2.7" fill="#ec7a54"/><circle cx="-15.48" cy="-17.3" r="2.1" fill="#f0a33d"/><circle cx="-22.03" cy="-29.5" r="2.22" fill="#ee8d49"/><circle cx="-29.98" cy="-39.98" r="2.34" fill="#ec7a54"/><circle cx="-39.56" cy="-48.47" r="2.46" fill="#ec7a54"/><circle cx="-50.78" cy="-54.95" r="2.58" fill="#ec7a54"/><circle cx="-63.4" cy="-59.72" r="2.7" fill="#ec7a54"/><circle cx="-30.17" cy="-23.25" r="2" fill="#ee894c"/><circle cx="-45.94" cy="-37.2" r="2" fill="#ec7a54"/><circle cx="-60.44" cy="-50.04" r="2" fill="#ec7a54"/><circle cx="-74.31" cy="-62.33" r="4.6" fill="#ec7a54"/></g><g stroke-linecap="round"><line x1="4" y1="-6.93" x2="25.72" y2="-38.14" stroke="#c9803a" stroke-width="0.8"/><line x1="8" y1="0" x2="45.89" y2="3.21" stroke="#c9803a" stroke-width="0.8"/><line x1="4" y1="6.93" x2="20.17" y2="41.34" stroke="#c9803a" stroke-width="0.8"/><line x1="-4" y1="6.93" x2="-25.72" y2="38.14" stroke="#c9803a" stroke-width="0.8"/><line x1="-8" y1="0" x2="-45.89" y2="-3.21" stroke="#c9803a" stroke-width="0.8"/><line x1="-4" y1="-6.93" x2="-20.17" y2="-41.34" stroke="#c9803a" stroke-width="0.8"/></g><g><circle cx="25.72" cy="-38.14" r="3.4" fill="#a0452e"/><circle cx="45.89" cy="3.21" r="3.4" fill="#a0452e"/><circle cx="20.17" cy="41.34" r="3.4" fill="#a0452e"/><circle cx="-25.72" cy="38.14" r="3.4" fill="#a0452e"/><circle cx="-45.89" cy="-3.21" r="3.4" fill="#a0452e"/><circle cx="-20.17" cy="-41.34" r="3.4" fill="#a0452e"/><circle cx="5" cy="-8.66" r="2.6" fill="#ee9a43"/><circle cx="10" cy="0" r="2.6" fill="#ec9148"/><circle cx="5" cy="8.66" r="2.6" fill="#ee9a43"/><circle cx="-5" cy="8.66" r="2.6" fill="#f0aa39"/><circle cx="-10" cy="0" r="2.6" fill="#f2b334"/><circle cx="-5" cy="-8.66" r="2.6" fill="#f0aa39"/><circle cx="0" cy="0" r="5.2" fill="#f2b632"/></g></svg>
