<svg xmlns="http://www.w3.org/2000/svg" viewBox="-102 -102 204 204" role="img" aria-label="Magnolia"><defs><linearGradient id="mb" gradientUnits="userSpaceOnUse" x1="0" y1="14" x2="-30" y2="98"><stop offset="0" stop-color="#819c60"/><stop offset="0.3" stop-color="#3aa56f"/></linearGradient><linearGradient id="ml" gradientUnits="userSpaceOnUse" x1="-8" y1="56" x2="46" y2="70"><stop offset="0" stop-color="#3aa56f"/><stop offset="0.5" stop-color="#2fb39a"/></linearGradient><linearGradient id="mol" gradientUnits="userSpaceOnUse" x1="-13" y1="8" x2="-92" y2="-30"><stop offset="0" stop-color="#f2b632"/><stop offset="0.45" stop-color="#ec9fb4"/></linearGradient><linearGradient id="mor" gradientUnits="userSpaceOnUse" x1="13" y1="8" x2="92" y2="-30"><stop offset="0" stop-color="#ec8e4a"/><stop offset="0.45" stop-color="#ec9fb4"/></linearGradient><linearGradient id="mil" gradientUnits="userSpaceOnUse" x1="-6.5" y1="0.21" x2="-40" y2="-90"><stop offset="0" stop-color="#f1ad37"/><stop offset="0.45" stop-color="#de7c95"/></linearGradient><linearGradient id="mir" gradientUnits="userSpaceOnUse" x1="6.5" y1="0.21" x2="40" y2="-90"><stop offset="0" stop-color="#ed9744"/><stop offset="0.45" stop-color="#de7c95"/></linearGradient><linearGradient id="mic" gradientUnits="userSpaceOnUse" x1="0" y1="-1" x2="0" y2="-100"><stop offset="0" stop-color="#efa23e"/><stop offset="0.45" stop-color="#c75f86"/></linearGradient></defs><g stroke-linecap="round"><line x1="0" y1="8" x2="11" y2="8" stroke="#ec9049" stroke-width="0.7" stroke-opacity="0.85"/><line x1="11" y1="8" x2="5.5" y2="14.06" stroke="#ec9049" stroke-width="0.7" stroke-opacity="0.85"/><line x1="0" y1="8" x2="5.5" y2="14.06" stroke="#ee9944" stroke-width="0.7" stroke-opacity="0.85"/><line x1="5.5" y1="14.06" x2="-5.5" y2="14.06" stroke="#ee9944" stroke-width="0.7" stroke-opacity="0.85"/><line x1="0" y1="8" x2="-5.5" y2="14.06" stroke="#f0ab38" stroke-width="0.7" stroke-opacity="0.85"/><line x1="-5.5" y1="14.06" x2="-11" y2="8" stroke="#f0ab38" stroke-width="0.7" stroke-opacity="0.85"/><line x1="0" y1="8" x2="-11" y2="8" stroke="#f2b433" stroke-width="0.7" stroke-opacity="0.85"/><line x1="-11" y1="8" x2="-5.5" y2="1.94" stroke="#f2b433" stroke-width="0.7" stroke-opacity="0.85"/><line x1="0" y1="8" x2="-5.5" y2="1.94" stroke="#f0ab38" stroke-width="0.7" stroke-opacity="0.85"/><line x1="-5.5" y1="1.94" x2="5.5" y2="1.94" stroke="#f0ab38" stroke-width="0.7" stroke-opacity="0.85"/><line x1="0" y1="8" x2="5.5" y2="1.94" stroke="#ee9944" stroke-width="0.7" stroke-opacity="0.85"/><line x1="5.5" y1="1.94" x2="11" y2="8" stroke="#ee9944" stroke-width="0.7" stroke-opacity="0.85"/><line x1="0" y1="14" x2="-4" y2="38" stroke="url(#mb)" stroke-width="1.1"/><line x1="-4" y1="38" x2="-12" y2="62" stroke="url(#mb)" stroke-width="1.1"/><line x1="-12" y1="62" x2="-22" y2="84" stroke="url(#mb)" stroke-width="1.1"/><line x1="-22" y1="84" x2="-30" y2="98" stroke="url(#mb)" stroke-width="1.1"/><line x1="-8" y1="56" x2="-0.06" y2="52.07" stroke="url(#ml)" stroke-width="0.8"/><line x1="-0.06" y1="52.07" x2="15.03" y2="50.16" stroke="url(#ml)" stroke-width="0.8"/><line x1="15.03" y1="50.16" x2="28.89" y2="53.02" stroke="url(#ml)" stroke-width="0.8"/><line x1="28.89" y1="53.02" x2="41.51" y2="60.65" stroke="url(#ml)" stroke-width="0.8"/><line x1="41.51" y1="60.65" x2="46.7" y2="67.3" stroke="url(#ml)" stroke-width="0.8"/><line x1="-0.06" y1="52.07" x2="8.41" y2="59.39" stroke="url(#ml)" stroke-width="0.7"/><line x1="15.03" y1="50.16" x2="8.41" y2="59.39" stroke="url(#ml)" stroke-width="0.7"/><line x1="15.03" y1="50.16" x2="22.09" y2="62.22" stroke="url(#ml)" stroke-width="0.7"/><line x1="28.89" y1="53.02" x2="22.09" y2="62.22" stroke="url(#ml)" stroke-width="0.7"/><line x1="28.89" y1="53.02" x2="34.67" y2="64.81" stroke="url(#ml)" stroke-width="0.7"/><line x1="41.51" y1="60.65" x2="34.67" y2="64.81" stroke="url(#ml)" stroke-width="0.7"/><line x1="-8" y1="56" x2="-2.81" y2="62.65" stroke="url(#ml)" stroke-width="0.8"/><line x1="-2.81" y1="62.65" x2="9.81" y2="70.28" stroke="url(#ml)" stroke-width="0.8"/><line x1="9.81" y1="70.28" x2="23.67" y2="73.14" stroke="url(#ml)" stroke-width="0.8"/><line x1="23.67" y1="73.14" x2="38.76" y2="71.23" stroke="url(#ml)" stroke-width="0.8"/><line x1="38.76" y1="71.23" x2="46.7" y2="67.3" stroke="url(#ml)" stroke-width="0.8"/><line x1="-2.81" y1="62.65" x2="8.41" y2="59.39" stroke="url(#ml)" stroke-width="0.7"/><line x1="9.81" y1="70.28" x2="8.41" y2="59.39" stroke="url(#ml)" stroke-width="0.7"/><line x1="9.81" y1="70.28" x2="22.09" y2="62.22" stroke="url(#ml)" stroke-width="0.7"/><line x1="23.67" y1="73.14" x2="22.09" y2="62.22" stroke="url(#ml)" stroke-width="0.7"/><line x1="23.67" y1="73.14" x2="34.67" y2="64.81" stroke="url(#ml)" stroke-width="0.7"/><line x1="38.76" y1="71.23" x2="34.67" y2="64.81" stroke="url(#ml)" stroke-width="0.7"/><line x1="-8" y1="56" x2="8.41" y2="59.39" stroke="url(#ml)" stroke-width="0.8"/><line x1="8.41" y1="59.39" x2="22.09" y2="62.22" stroke="url(#ml)" stroke-width="0.8"/><line x1="22.09" y1="62.22" x2="34.67" y2="64.81" stroke="url(#ml)" stroke-width="0.8"/><line x1="34.67" y1="64.81" x2="46.7" y2="67.3" stroke="url(#ml)" stroke-width="0.8"/></g><g><circle cx="-0.06" cy="52.07" r="1.87" fill="#39a774"/><circle cx="15.03" cy="50.16" r="2.02" fill="#36aa7f"/><circle cx="28.89" cy="53.02" r="2.18" fill="#33ae8a"/><circle cx="41.51" cy="60.65" r="2.33" fill="#30b195"/><circle cx="-2.81" cy="62.65" r="1.87" fill="#39a774"/><circle cx="9.81" cy="70.28" r="2.02" fill="#36aa7f"/><circle cx="23.67" cy="73.14" r="2.18" fill="#33ae8a"/><circle cx="38.76" cy="71.23" r="2.33" fill="#30b195"/><circle cx="8.41" cy="59.39" r="1.8" fill="#37a97c"/><circle cx="22.09" cy="62.22" r="1.8" fill="#34ad87"/><circle cx="34.67" cy="64.81" r="1.8" fill="#31b091"/><circle cx="46.7" cy="67.3" r="3.8" fill="#2fb39a"/><circle cx="-4" cy="38" r="2.2" fill="#3aa56f"/><circle cx="-12" cy="62" r="2.2" fill="#3aa56f"/><circle cx="-22" cy="84" r="2.2" fill="#3aa56f"/><circle cx="-30" cy="98" r="3" fill="#3aa56f"/></g><g stroke-linecap="round"><line x1="-13" y1="8" x2="-28.19" y2="15.31" stroke="url(#mol)" stroke-width="0.8"/><line x1="-28.19" y1="15.31" x2="-46.77" y2="15.52" stroke="url(#mol)" stroke-width="0.8"/><line x1="-46.77" y1="15.52" x2="-62.9" y2="10.63" stroke="url(#mol)" stroke-width="0.8"/><line x1="-62.9" y1="10.63" x2="-76.79" y2="1.08" stroke="url(#mol)" stroke-width="0.8"/><line x1="-76.79" y1="1.08" x2="-88.23" y2="-13.57" stroke="url(#mol)" stroke-width="0.8"/><line x1="-88.23" y1="-13.57" x2="-92" y2="-30" stroke="url(#mol)" stroke-width="0.8"/><line x1="-28.19" y1="15.31" x2="-36.7" y2="-3.4" stroke="url(#mol)" stroke-width="0.7"/><line x1="-46.77" y1="15.52" x2="-36.7" y2="-3.4" stroke="url(#mol)" stroke-width="0.7"/><line x1="-46.77" y1="15.52" x2="-56.45" y2="-12.9" stroke="url(#mol)" stroke-width="0.7"/><line x1="-62.9" y1="10.63" x2="-56.45" y2="-12.9" stroke="url(#mol)" stroke-width="0.7"/><line x1="-62.9" y1="10.63" x2="-36.7" y2="-3.4" stroke="url(#mol)" stroke-width="0.7"/><line x1="-76.79" y1="1.08" x2="-74.62" y2="-21.64" stroke="url(#mol)" stroke-width="0.7"/><line x1="-76.79" y1="1.08" x2="-56.45" y2="-12.9" stroke="url(#mol)" stroke-width="0.7"/><line x1="-88.23" y1="-13.57" x2="-74.62" y2="-21.64" stroke="url(#mol)" stroke-width="0.7"/><line x1="-13" y1="8" x2="-16.77" y2="-8.43" stroke="url(#mol)" stroke-width="0.8"/><line x1="-16.77" y1="-8.43" x2="-28.21" y2="-23.08" stroke="url(#mol)" stroke-width="0.8"/><line x1="-28.21" y1="-23.08" x2="-42.1" y2="-32.63" stroke="url(#mol)" stroke-width="0.8"/><line x1="-42.1" y1="-32.63" x2="-58.23" y2="-37.52" stroke="url(#mol)" stroke-width="0.8"/><line x1="-58.23" y1="-37.52" x2="-76.81" y2="-37.31" stroke="url(#mol)" stroke-width="0.8"/><line x1="-76.81" y1="-37.31" x2="-92" y2="-30" stroke="url(#mol)" stroke-width="0.8"/><line x1="-16.77" y1="-8.43" x2="-36.7" y2="-3.4" stroke="url(#mol)" stroke-width="0.7"/><line x1="-28.21" y1="-23.08" x2="-36.7" y2="-3.4" stroke="url(#mol)" stroke-width="0.7"/><line x1="-28.21" y1="-23.08" x2="-56.45" y2="-12.9" stroke="url(#mol)" stroke-width="0.7"/><line x1="-42.1" y1="-32.63" x2="-56.45" y2="-12.9" stroke="url(#mol)" stroke-width="0.7"/><line x1="-42.1" y1="-32.63" x2="-36.7" y2="-3.4" stroke="url(#mol)" stroke-width="0.7"/><line x1="-58.23" y1="-37.52" x2="-74.62" y2="-21.64" stroke="url(#mol)" stroke-width="0.7"/><line x1="-58.23" y1="-37.52" x2="-56.45" y2="-12.9" stroke="url(#mol)" stroke-width="0.7"/><line x1="-76.81" y1="-37.31" x2="-74.62" y2="-21.64" stroke="url(#mol)" stroke-width="0.7"/><line x1="-13" y1="8" x2="-36.7" y2="-3.4" stroke="url(#mol)" stroke-width="0.8"/><line x1="-36.7" y1="-3.4" x2="-56.45" y2="-12.9" stroke="url(#mol)" stroke-width="0.8"/><line x1="-56.45" y1="-12.9" x2="-74.62" y2="-21.64" stroke="url(#mol)" stroke-width="0.8"/><line x1="-74.62" y1="-21.64" x2="-92" y2="-30" stroke="url(#mol)" stroke-width="0.8"/><line x1="-11" y1="8" x2="-13" y2="8" stroke="url(#mol)" stroke-width="0.6" stroke-opacity="0.85"/><line x1="-5.5" y1="1.94" x2="-13" y2="8" stroke="url(#mol)" stroke-width="0.6" stroke-opacity="0.85"/><line x1="13" y1="8" x2="16.77" y2="-8.43" stroke="url(#mor)" stroke-width="0.8"/><line x1="16.77" y1="-8.43" x2="28.21" y2="-23.08" stroke="url(#mor)" stroke-width="0.8"/><line x1="28.21" y1="-23.08" x2="42.1" y2="-32.63" stroke="url(#mor)" stroke-width="0.8"/><line x1="42.1" y1="-32.63" x2="58.23" y2="-37.52" stroke="url(#mor)" stroke-width="0.8"/><line x1="58.23" y1="-37.52" x2="76.81" y2="-37.31" stroke="url(#mor)" stroke-width="0.8"/><line x1="76.81" y1="-37.31" x2="92" y2="-30" stroke="url(#mor)" stroke-width="0.8"/><line x1="16.77" y1="-8.43" x2="36.7" y2="-3.4" stroke="url(#mor)" stroke-width="0.7"/><line x1="28.21" y1="-23.08" x2="36.7" y2="-3.4" stroke="url(#mor)" stroke-width="0.7"/><line x1="28.21" y1="-23.08" x2="56.45" y2="-12.9" stroke="url(#mor)" stroke-width="0.7"/><line x1="42.1" y1="-32.63" x2="56.45" y2="-12.9" stroke="url(#mor)" stroke-width="0.7"/><line x1="42.1" y1="-32.63" x2="36.7" y2="-3.4" stroke="url(#mor)" stroke-width="0.7"/><line x1="58.23" y1="-37.52" x2="74.62" y2="-21.64" stroke="url(#mor)" stroke-width="0.7"/><line x1="58.23" y1="-37.52" x2="56.45" y2="-12.9" stroke="url(#mor)" stroke-width="0.7"/><line x1="76.81" y1="-37.31" x2="74.62" y2="-21.64" stroke="url(#mor)" stroke-width="0.7"/><line x1="13" y1="8" x2="28.19" y2="15.31" stroke="url(#mor)" stroke-width="0.8"/><line x1="28.19" y1="15.31" x2="46.77" y2="15.52" stroke="url(#mor)" stroke-width="0.8"/><line x1="46.77" y1="15.52" x2="62.9" y2="10.63" stroke="url(#mor)" stroke-width="0.8"/><line x1="62.9" y1="10.63" x2="76.79" y2="1.08" stroke="url(#mor)" stroke-width="0.8"/><line x1="76.79" y1="1.08" x2="88.23" y2="-13.57" stroke="url(#mor)" stroke-width="0.8"/><line x1="88.23" y1="-13.57" x2="92" y2="-30" stroke="url(#mor)" stroke-width="0.8"/><line x1="28.19" y1="15.31" x2="36.7" y2="-3.4" stroke="url(#mor)" stroke-width="0.7"/><line x1="46.77" y1="15.52" x2="36.7" y2="-3.4" stroke="url(#mor)" stroke-width="0.7"/><line x1="46.77" y1="15.52" x2="56.45" y2="-12.9" stroke="url(#mor)" stroke-width="0.7"/><line x1="62.9" y1="10.63" x2="56.45" y2="-12.9" stroke="url(#mor)" stroke-width="0.7"/><line x1="62.9" y1="10.63" x2="36.7" y2="-3.4" stroke="url(#mor)" stroke-width="0.7"/><line x1="76.79" y1="1.08" x2="74.62" y2="-21.64" stroke="url(#mor)" stroke-width="0.7"/><line x1="76.79" y1="1.08" x2="56.45" y2="-12.9" stroke="url(#mor)" stroke-width="0.7"/><line x1="88.23" y1="-13.57" x2="74.62" y2="-21.64" stroke="url(#mor)" stroke-width="0.7"/><line x1="13" y1="8" x2="36.7" y2="-3.4" stroke="url(#mor)" stroke-width="0.8"/><line x1="36.7" y1="-3.4" x2="56.45" y2="-12.9" stroke="url(#mor)" stroke-width="0.8"/><line x1="56.45" y1="-12.9" x2="74.62" y2="-21.64" stroke="url(#mor)" stroke-width="0.8"/><line x1="74.62" y1="-21.64" x2="92" y2="-30" stroke="url(#mor)" stroke-width="0.8"/><line x1="11" y1="8" x2="13" y2="8" stroke="url(#mor)" stroke-width="0.6" stroke-opacity="0.85"/><line x1="5.5" y1="14.06" x2="13" y2="8" stroke="url(#mor)" stroke-width="0.6" stroke-opacity="0.85"/><line x1="-6.5" y1="0.21" x2="-20.3" y2="-6.99" stroke="url(#mil)" stroke-width="0.8"/><line x1="-20.3" y1="-6.99" x2="-31.77" y2="-18.33" stroke="url(#mil)" stroke-width="0.8"/><line x1="-31.77" y1="-18.33" x2="-40" y2="-30.88" stroke="url(#mil)" stroke-width="0.8"/><line x1="-40" y1="-30.88" x2="-45.09" y2="-44.59" stroke="url(#mil)" stroke-width="0.8"/><line x1="-45.09" y1="-44.59" x2="-47.05" y2="-59.46" stroke="url(#mil)" stroke-width="0.8"/><line x1="-47.05" y1="-59.46" x2="-45.76" y2="-75.54" stroke="url(#mil)" stroke-width="0.8"/><line x1="-45.76" y1="-75.54" x2="-40" y2="-90" stroke="url(#mil)" stroke-width="0.8"/><line x1="-20.3" y1="-6.99" x2="-16.55" y2="-26.86" stroke="url(#mil)" stroke-width="0.7"/><line x1="-31.77" y1="-18.33" x2="-16.55" y2="-26.86" stroke="url(#mil)" stroke-width="0.7"/><line x1="-31.77" y1="-18.33" x2="-24.93" y2="-49.41" stroke="url(#mil)" stroke-width="0.7"/><line x1="-40" y1="-30.88" x2="-16.55" y2="-26.86" stroke="url(#mil)" stroke-width="0.7"/><line x1="-40" y1="-30.88" x2="-24.93" y2="-49.41" stroke="url(#mil)" stroke-width="0.7"/><line x1="-45.09" y1="-44.59" x2="-24.93" y2="-49.41" stroke="url(#mil)" stroke-width="0.7"/><line x1="-45.09" y1="-44.59" x2="-32.63" y2="-70.15" stroke="url(#mil)" stroke-width="0.7"/><line x1="-47.05" y1="-59.46" x2="-32.63" y2="-70.15" stroke="url(#mil)" stroke-width="0.7"/><line x1="-47.05" y1="-59.46" x2="-24.93" y2="-49.41" stroke="url(#mil)" stroke-width="0.7"/><line x1="-45.76" y1="-75.54" x2="-32.63" y2="-70.15" stroke="url(#mil)" stroke-width="0.7"/><line x1="-6.5" y1="0.21" x2="-0.74" y2="-14.25" stroke="url(#mil)" stroke-width="0.8"/><line x1="-0.74" y1="-14.25" x2="0.55" y2="-30.33" stroke="url(#mil)" stroke-width="0.8"/><line x1="0.55" y1="-30.33" x2="-1.41" y2="-45.21" stroke="url(#mil)" stroke-width="0.8"/><line x1="-1.41" y1="-45.21" x2="-6.5" y2="-58.92" stroke="url(#mil)" stroke-width="0.8"/><line x1="-6.5" y1="-58.92" x2="-14.73" y2="-71.47" stroke="url(#mil)" stroke-width="0.8"/><line x1="-14.73" y1="-71.47" x2="-26.2" y2="-82.81" stroke="url(#mil)" stroke-width="0.8"/><line x1="-26.2" y1="-82.81" x2="-40" y2="-90" stroke="url(#mil)" stroke-width="0.8"/><line x1="-0.74" y1="-14.25" x2="-16.55" y2="-26.86" stroke="url(#mil)" stroke-width="0.7"/><line x1="0.55" y1="-30.33" x2="-16.55" y2="-26.86" stroke="url(#mil)" stroke-width="0.7"/><line x1="0.55" y1="-30.33" x2="-24.93" y2="-49.41" stroke="url(#mil)" stroke-width="0.7"/><line x1="-1.41" y1="-45.21" x2="-16.55" y2="-26.86" stroke="url(#mil)" stroke-width="0.7"/><line x1="-1.41" y1="-45.21" x2="-24.93" y2="-49.41" stroke="url(#mil)" stroke-width="0.7"/><line x1="-6.5" y1="-58.92" x2="-24.93" y2="-49.41" stroke="url(#mil)" stroke-width="0.7"/><line x1="-6.5" y1="-58.92" x2="-32.63" y2="-70.15" stroke="url(#mil)" stroke-width="0.7"/><line x1="-14.73" y1="-71.47" x2="-32.63" y2="-70.15" stroke="url(#mil)" stroke-width="0.7"/><line x1="-14.73" y1="-71.47" x2="-24.93" y2="-49.41" stroke="url(#mil)" stroke-width="0.7"/><line x1="-26.2" y1="-82.81" x2="-32.63" y2="-70.15" stroke="url(#mil)" stroke-width="0.7"/><line x1="-6.5" y1="0.21" x2="-16.55" y2="-26.86" stroke="url(#mil)" stroke-width="0.8"/><line x1="-16.55" y1="-26.86" x2="-24.93" y2="-49.41" stroke="url(#mil)" stroke-width="0.8"/><line x1="-24.93" y1="-49.41" x2="-32.63" y2="-70.15" stroke="url(#mil)" stroke-width="0.8"/><line x1="-32.63" y1="-70.15" x2="-40" y2="-90" stroke="url(#mil)" stroke-width="0.8"/><line x1="-5.5" y1="1.94" x2="-6.5" y2="0.21" stroke="url(#mil)" stroke-width="0.6" stroke-opacity="0.85"/><line x1="-11" y1="8" x2="-6.5" y2="0.21" stroke="url(#mil)" stroke-width="0.6" stroke-opacity="0.85"/><line x1="6.5" y1="0.21" x2="0.74" y2="-14.25" stroke="url(#mir)" stroke-width="0.8"/><line x1="0.74" y1="-14.25" x2="-0.55" y2="-30.33" stroke="url(#mir)" stroke-width="0.8"/><line x1="-0.55" y1="-30.33" x2="1.41" y2="-45.21" stroke="url(#mir)" stroke-width="0.8"/><line x1="1.41" y1="-45.21" x2="6.5" y2="-58.92" stroke="url(#mir)" stroke-width="0.8"/><line x1="6.5" y1="-58.92" x2="14.73" y2="-71.47" stroke="url(#mir)" stroke-width="0.8"/><line x1="14.73" y1="-71.47" x2="26.2" y2="-82.81" stroke="url(#mir)" stroke-width="0.8"/><line x1="26.2" y1="-82.81" x2="40" y2="-90" stroke="url(#mir)" stroke-width="0.8"/><line x1="0.74" y1="-14.25" x2="16.55" y2="-26.86" stroke="url(#mir)" stroke-width="0.7"/><line x1="-0.55" y1="-30.33" x2="16.55" y2="-26.86" stroke="url(#mir)" stroke-width="0.7"/><line x1="-0.55" y1="-30.33" x2="24.93" y2="-49.41" stroke="url(#mir)" stroke-width="0.7"/><line x1="1.41" y1="-45.21" x2="16.55" y2="-26.86" stroke="url(#mir)" stroke-width="0.7"/><line x1="1.41" y1="-45.21" x2="24.93" y2="-49.41" stroke="url(#mir)" stroke-width="0.7"/><line x1="6.5" y1="-58.92" x2="24.93" y2="-49.41" stroke="url(#mir)" stroke-width="0.7"/><line x1="6.5" y1="-58.92" x2="32.63" y2="-70.15" stroke="url(#mir)" stroke-width="0.7"/><line x1="14.73" y1="-71.47" x2="32.63" y2="-70.15" stroke="url(#mir)" stroke-width="0.7"/><line x1="14.73" y1="-71.47" x2="24.93" y2="-49.41" stroke="url(#mir)" stroke-width="0.7"/><line x1="26.2" y1="-82.81" x2="32.63" y2="-70.15" stroke="url(#mir)" stroke-width="0.7"/><line x1="6.5" y1="0.21" x2="20.3" y2="-6.99" stroke="url(#mir)" stroke-width="0.8"/><line x1="20.3" y1="-6.99" x2="31.77" y2="-18.33" stroke="url(#mir)" stroke-width="0.8"/><line x1="31.77" y1="-18.33" x2="40" y2="-30.88" stroke="url(#mir)" stroke-width="0.8"/><line x1="40" y1="-30.88" x2="45.09" y2="-44.59" stroke="url(#mir)" stroke-width="0.8"/><line x1="45.09" y1="-44.59" x2="47.05" y2="-59.46" stroke="url(#mir)" stroke-width="0.8"/><line x1="47.05" y1="-59.46" x2="45.76" y2="-75.54" stroke="url(#mir)" stroke-width="0.8"/><line x1="45.76" y1="-75.54" x2="40" y2="-90" stroke="url(#mir)" stroke-width="0.8"/><line x1="20.3" y1="-6.99" x2="16.55" y2="-26.86" stroke="url(#mir)" stroke-width="0.7"/><line x1="31.77" y1="-18.33" x2="16.55" y2="-26.86" stroke="url(#mir)" stroke-width="0.7"/><line x1="31.77" y1="-18.33" x2="24.93" y2="-49.41" stroke="url(#mir)" stroke-width="0.7"/><line x1="40" y1="-30.88" x2="16.55" y2="-26.86" stroke="url(#mir)" stroke-width="0.7"/><line x1="40" y1="-30.88" x2="24.93" y2="-49.41" stroke="url(#mir)" stroke-width="0.7"/><line x1="45.09" y1="-44.59" x2="24.93" y2="-49.41" stroke="url(#mir)" stroke-width="0.7"/><line x1="45.09" y1="-44.59" x2="32.63" y2="-70.15" stroke="url(#mir)" stroke-width="0.7"/><line x1="47.05" y1="-59.46" x2="32.63" y2="-70.15" stroke="url(#mir)" stroke-width="0.7"/><line x1="47.05" y1="-59.46" x2="24.93" y2="-49.41" stroke="url(#mir)" stroke-width="0.7"/><line x1="45.76" y1="-75.54" x2="32.63" y2="-70.15" stroke="url(#mir)" stroke-width="0.7"/><line x1="6.5" y1="0.21" x2="16.55" y2="-26.86" stroke="url(#mir)" stroke-width="0.8"/><line x1="16.55" y1="-26.86" x2="24.93" y2="-49.41" stroke="url(#mir)" stroke-width="0.8"/><line x1="24.93" y1="-49.41" x2="32.63" y2="-70.15" stroke="url(#mir)" stroke-width="0.8"/><line x1="32.63" y1="-70.15" x2="40" y2="-90" stroke="url(#mir)" stroke-width="0.8"/><line x1="5.5" y1="1.94" x2="6.5" y2="0.21" stroke="url(#mir)" stroke-width="0.6" stroke-opacity="0.85"/><line x1="11" y1="8" x2="6.5" y2="0.21" stroke="url(#mir)" stroke-width="0.6" stroke-opacity="0.85"/><line x1="0" y1="-1" x2="-8.09" y2="-12.88" stroke="url(#mic)" stroke-width="0.8"/><line x1="-8.09" y1="-12.88" x2="-14.36" y2="-27.93" stroke="url(#mic)" stroke-width="0.8"/><line x1="-14.36" y1="-27.93" x2="-17.59" y2="-42.98" stroke="url(#mic)" stroke-width="0.8"/><line x1="-17.59" y1="-42.98" x2="-17.59" y2="-58.02" stroke="url(#mic)" stroke-width="0.8"/><line x1="-17.59" y1="-58.02" x2="-14.36" y2="-73.07" stroke="url(#mic)" stroke-width="0.8"/><line x1="-14.36" y1="-73.07" x2="-8.09" y2="-88.12" stroke="url(#mic)" stroke-width="0.8"/><line x1="-8.09" y1="-88.12" x2="0" y2="-100" stroke="url(#mic)" stroke-width="0.8"/><line x1="-8.09" y1="-12.88" x2="0" y2="-30.7" stroke="url(#mic)" stroke-width="0.7"/><line x1="-14.36" y1="-27.93" x2="0" y2="-30.7" stroke="url(#mic)" stroke-width="0.7"/><line x1="-14.36" y1="-27.93" x2="0" y2="-55.45" stroke="url(#mic)" stroke-width="0.7"/><line x1="-17.59" y1="-42.98" x2="0" y2="-30.7" stroke="url(#mic)" stroke-width="0.7"/><line x1="-17.59" y1="-42.98" x2="0" y2="-55.45" stroke="url(#mic)" stroke-width="0.7"/><line x1="-17.59" y1="-58.02" x2="0" y2="-55.45" stroke="url(#mic)" stroke-width="0.7"/><line x1="-17.59" y1="-58.02" x2="0" y2="-78.22" stroke="url(#mic)" stroke-width="0.7"/><line x1="-14.36" y1="-73.07" x2="0" y2="-78.22" stroke="url(#mic)" stroke-width="0.7"/><line x1="-14.36" y1="-73.07" x2="0" y2="-55.45" stroke="url(#mic)" stroke-width="0.7"/><line x1="-8.09" y1="-88.12" x2="0" y2="-78.22" stroke="url(#mic)" stroke-width="0.7"/><line x1="0" y1="-1" x2="8.09" y2="-12.88" stroke="url(#mic)" stroke-width="0.8"/><line x1="8.09" y1="-12.88" x2="14.36" y2="-27.93" stroke="url(#mic)" stroke-width="0.8"/><line x1="14.36" y1="-27.93" x2="17.59" y2="-42.98" stroke="url(#mic)" stroke-width="0.8"/><line x1="17.59" y1="-42.98" x2="17.59" y2="-58.02" stroke="url(#mic)" stroke-width="0.8"/><line x1="17.59" y1="-58.02" x2="14.36" y2="-73.07" stroke="url(#mic)" stroke-width="0.8"/><line x1="14.36" y1="-73.07" x2="8.09" y2="-88.12" stroke="url(#mic)" stroke-width="0.8"/><line x1="8.09" y1="-88.12" x2="0" y2="-100" stroke="url(#mic)" stroke-width="0.8"/><line x1="8.09" y1="-12.88" x2="0" y2="-30.7" stroke="url(#mic)" stroke-width="0.7"/><line x1="14.36" y1="-27.93" x2="0" y2="-30.7" stroke="url(#mic)" stroke-width="0.7"/><line x1="14.36" y1="-27.93" x2="0" y2="-55.45" stroke="url(#mic)" stroke-width="0.7"/><line x1="17.59" y1="-42.98" x2="0" y2="-30.7" stroke="url(#mic)" stroke-width="0.7"/><line x1="17.59" y1="-42.98" x2="0" y2="-55.45" stroke="url(#mic)" stroke-width="0.7"/><line x1="17.59" y1="-58.02" x2="0" y2="-55.45" stroke="url(#mic)" stroke-width="0.7"/><line x1="17.59" y1="-58.02" x2="0" y2="-78.22" stroke="url(#mic)" stroke-width="0.7"/><line x1="14.36" y1="-73.07" x2="0" y2="-78.22" stroke="url(#mic)" stroke-width="0.7"/><line x1="14.36" y1="-73.07" x2="0" y2="-55.45" stroke="url(#mic)" stroke-width="0.7"/><line x1="8.09" y1="-88.12" x2="0" y2="-78.22" stroke="url(#mic)" stroke-width="0.7"/><line x1="0" y1="-1" x2="0" y2="-30.7" stroke="url(#mic)" stroke-width="0.8"/><line x1="0" y1="-30.7" x2="0" y2="-55.45" stroke="url(#mic)" stroke-width="0.8"/><line x1="0" y1="-55.45" x2="0" y2="-78.22" stroke="url(#mic)" stroke-width="0.8"/><line x1="0" y1="-78.22" x2="0" y2="-100" stroke="url(#mic)" stroke-width="0.8"/><line x1="-5.5" y1="1.94" x2="0" y2="-1" stroke="url(#mic)" stroke-width="0.6" stroke-opacity="0.85"/><line x1="5.5" y1="1.94" x2="0" y2="-1" stroke="url(#mic)" stroke-width="0.6" stroke-opacity="0.85"/></g><g><circle cx="-28.19" cy="15.31" r="2.11" fill="#f0b055"/><circle cx="-46.77" cy="15.52" r="2.28" fill="#eea68c"/><circle cx="-62.9" cy="10.63" r="2.45" fill="#ec9fb4"/><circle cx="-76.79" cy="1.08" r="2.62" fill="#ec9fb4"/><circle cx="-88.23" cy="-13.57" r="2.79" fill="#ec9fb4"/><circle cx="-16.77" cy="-8.43" r="2.11" fill="#f0b055"/><circle cx="-28.21" cy="-23.08" r="2.28" fill="#eea68c"/><circle cx="-42.1" cy="-32.63" r="2.45" fill="#ec9fb4"/><circle cx="-58.23" cy="-37.52" r="2.62" fill="#ec9fb4"/><circle cx="-76.81" cy="-37.31" r="2.79" fill="#ec9fb4"/><circle cx="-36.7" cy="-3.4" r="2" fill="#eea789"/><circle cx="-56.45" cy="-12.9" r="2" fill="#ec9fb4"/><circle cx="-74.62" cy="-21.64" r="2" fill="#ec9fb4"/><circle cx="-92" cy="-30" r="5" fill="#ec9fb4"/><circle cx="16.77" cy="-8.43" r="2.11" fill="#ec9366"/><circle cx="28.21" cy="-23.08" r="2.28" fill="#ec9a93"/><circle cx="42.1" cy="-32.63" r="2.45" fill="#ec9fb4"/><circle cx="58.23" cy="-37.52" r="2.62" fill="#ec9fb4"/><circle cx="76.81" cy="-37.31" r="2.79" fill="#ec9fb4"/><circle cx="28.19" cy="15.31" r="2.11" fill="#ec9366"/><circle cx="46.77" cy="15.52" r="2.28" fill="#ec9a93"/><circle cx="62.9" cy="10.63" r="2.45" fill="#ec9fb4"/><circle cx="76.79" cy="1.08" r="2.62" fill="#ec9fb4"/><circle cx="88.23" cy="-13.57" r="2.79" fill="#ec9fb4"/><circle cx="36.7" cy="-3.4" r="2" fill="#ec9991"/><circle cx="56.45" cy="-12.9" r="2" fill="#ec9fb4"/><circle cx="74.62" cy="-21.64" r="2" fill="#ec9fb4"/><circle cx="92" cy="-30" r="5" fill="#ec9fb4"/><circle cx="-20.3" cy="-6.99" r="2.22" fill="#eca050"/><circle cx="-31.77" cy="-18.33" r="2.37" fill="#e68f70"/><circle cx="-40" cy="-30.88" r="2.52" fill="#df7f90"/><circle cx="-45.09" cy="-44.59" r="2.68" fill="#de7c95"/><circle cx="-47.05" cy="-59.46" r="2.83" fill="#de7c95"/><circle cx="-45.76" cy="-75.54" r="2.98" fill="#de7c95"/><circle cx="-0.74" cy="-14.25" r="2.22" fill="#eca050"/><circle cx="0.55" cy="-30.33" r="2.37" fill="#e68f70"/><circle cx="-1.41" cy="-45.21" r="2.52" fill="#df7f90"/><circle cx="-6.5" cy="-58.92" r="2.68" fill="#de7c95"/><circle cx="-14.73" cy="-71.47" r="2.83" fill="#de7c95"/><circle cx="-26.2" cy="-82.81" r="2.98" fill="#de7c95"/><circle cx="-16.55" cy="-26.86" r="2.1" fill="#e48c76"/><circle cx="-24.93" cy="-49.41" r="2.1" fill="#de7c95"/><circle cx="-32.63" cy="-70.15" r="2.1" fill="#de7c95"/><circle cx="-40" cy="-90" r="5.2" fill="#de7c95"/><circle cx="0.74" cy="-14.25" r="2.22" fill="#e9905a"/><circle cx="-0.55" cy="-30.33" r="2.37" fill="#e48775"/><circle cx="1.41" cy="-45.21" r="2.52" fill="#df7e90"/><circle cx="6.5" cy="-58.92" r="2.68" fill="#de7c95"/><circle cx="14.73" cy="-71.47" r="2.83" fill="#de7c95"/><circle cx="26.2" cy="-82.81" r="2.98" fill="#de7c95"/><circle cx="20.3" cy="-6.99" r="2.22" fill="#e9905a"/><circle cx="31.77" cy="-18.33" r="2.37" fill="#e48775"/><circle cx="40" cy="-30.88" r="2.52" fill="#df7e90"/><circle cx="45.09" cy="-44.59" r="2.68" fill="#de7c95"/><circle cx="47.05" cy="-59.46" r="2.83" fill="#de7c95"/><circle cx="45.76" cy="-75.54" r="2.98" fill="#de7c95"/><circle cx="16.55" cy="-26.86" r="2.1" fill="#e3857a"/><circle cx="24.93" cy="-49.41" r="2.1" fill="#de7c95"/><circle cx="32.63" cy="-70.15" r="2.1" fill="#de7c95"/><circle cx="40" cy="-90" r="5.2" fill="#de7c95"/><circle cx="-8.09" cy="-12.88" r="2.22" fill="#e49051"/><circle cx="-14.36" cy="-27.93" r="2.37" fill="#d77a6a"/><circle cx="-17.59" cy="-42.98" r="2.52" fill="#c96382"/><circle cx="-17.59" cy="-58.02" r="2.68" fill="#c75f86"/><circle cx="-14.36" cy="-73.07" r="2.83" fill="#c75f86"/><circle cx="-8.09" cy="-88.12" r="2.98" fill="#c75f86"/><circle cx="8.09" cy="-12.88" r="2.22" fill="#e49051"/><circle cx="14.36" cy="-27.93" r="2.37" fill="#d77a6a"/><circle cx="17.59" cy="-42.98" r="2.52" fill="#c96382"/><circle cx="17.59" cy="-58.02" r="2.68" fill="#c75f86"/><circle cx="14.36" cy="-73.07" r="2.83" fill="#c75f86"/><circle cx="8.09" cy="-88.12" r="2.98" fill="#c75f86"/><circle cx="0" cy="-30.7" r="2.1" fill="#d4756e"/><circle cx="0" cy="-55.45" r="2.1" fill="#c75f86"/><circle cx="0" cy="-78.22" r="2.1" fill="#c75f86"/><circle cx="0" cy="-100" r="5.4" fill="#c75f86"/><circle cx="11" cy="8" r="2.6" fill="#ec9049"/><circle cx="5.5" cy="14.06" r="2.6" fill="#ee9944"/><circle cx="-5.5" cy="14.06" r="2.6" fill="#f0ab38"/><circle cx="-11" cy="8" r="2.6" fill="#f2b433"/><circle cx="-5.5" cy="1.94" r="2.6" fill="#f0ab38"/><circle cx="5.5" cy="1.94" r="2.6" fill="#ee9944"/><circle cx="0" cy="8" r="5.2" fill="#f2b632"/></g></svg>
