<svg xmlns="http://www.w3.org/2000/svg" viewBox="-50 -50 100 100"><g stroke-linecap="round" stroke-linejoin="round"><polyline points="-6.3,15.6 -8.1,14.8 -9.4,13.1 -10.1,10.9 -9.7,8.6 -8.4,6.4 -6.1,4.8 -3.2,4.3 -0.2,5.1 2.4,7.2 4.1,10.3 4.4,14.1 3.0,17.8 -0.0,20.9 -4.3,22.6 -9.1,22.4 -13.8,20.1 -17.3,15.9 -18.9,10.2 -18.0,4.0 -14.5,-1.7 -8.6,-5.6 -1.1,-6.9 6.8,-5.0 13.6,0.4 17.9,8.5 18.6,18.3 15.0,28.1 7.2,36.1 -3.8,40.5 -16.5,40.1 -28.6,34.1 -37.8,23.1 -42.0,8.4 -39.7,-7.8 -30.4,-22.6 -15.0,-32.9 4.4,-36.3" fill="none" stroke="#6e7781" stroke-width="3.6"/><line x1="-13.8" y1="20.1" x2="-8.1" y2="14.8" stroke="#6e7781" stroke-width="2.2"/><line x1="-18.9" y1="10.2" x2="-10.1" y2="10.9" stroke="#6e7781" stroke-width="2.2"/><line x1="-14.5" y1="-1.7" x2="-8.4" y2="6.4" stroke="#6e7781" stroke-width="2.2"/><line x1="-1.1" y1="-6.9" x2="-3.2" y2="4.3" stroke="#6e7781" stroke-width="2.2"/><line x1="13.6" y1="0.4" x2="2.4" y2="7.2" stroke="#6e7781" stroke-width="2.2"/><line x1="18.6" y1="18.3" x2="4.4" y2="14.1" stroke="#6e7781" stroke-width="2.2"/><line x1="7.2" y1="36.1" x2="-0.0" y2="20.9" stroke="#6e7781" stroke-width="2.2"/><line x1="-16.5" y1="40.1" x2="-9.1" y2="22.4" stroke="#6e7781" stroke-width="2.2"/><line x1="-37.8" y1="23.1" x2="-17.3" y2="15.9" stroke="#6e7781" stroke-width="2.2"/><line x1="-39.7" y1="-7.8" x2="-18.0" y2="4.0" stroke="#6e7781" stroke-width="2.2"/><line x1="-15.0" y1="-32.9" x2="-8.6" y2="-5.6" stroke="#6e7781" stroke-width="2.2"/><circle cx="-9.7" cy="8.6" r="3" fill="#6e7781"/><circle cx="-3.2" cy="4.3" r="3" fill="#6e7781"/><circle cx="4.1" cy="10.3" r="3" fill="#6e7781"/><circle cx="-0.0" cy="20.9" r="3" fill="#6e7781"/><circle cx="-13.8" cy="20.1" r="3" fill="#6e7781"/><circle cx="-18.0" cy="4.0" r="3" fill="#6e7781"/><circle cx="-1.1" cy="-6.9" r="3" fill="#6e7781"/><circle cx="17.9" cy="8.5" r="3" fill="#6e7781"/><circle cx="7.2" cy="36.1" r="3" fill="#6e7781"/><circle cx="-28.6" cy="34.1" r="3" fill="#6e7781"/><circle cx="-39.7" cy="-7.8" r="3" fill="#6e7781"/><circle cx="4.4" cy="-36.3" r="3" fill="#6e7781"/><polyline points="27.2,-34.0 29.9,-24.6 29.2,-14.8 25.2,-5.8 18.4,1.3" fill="none" stroke="#6e7781" stroke-width="3.2"/><polyline points="37.3,-40.5 40.8,-31.4 42.0,-21.6 40.8,-11.9 37.3,-2.7 31.6,5.4 24.2,11.8" fill="none" stroke="#6e7781" stroke-width="3.2"/><circle cx="-6.3" cy="15.6" r="4.4" fill="#6e7781"/></g></svg>
