<svg xmlns="http://www.w3.org/2000/svg" viewBox="-102 -102 204 204" role="img" aria-label="Thistle"><defs><linearGradient id="ts" gradientUnits="userSpaceOnUse" x1="0" y1="58" x2="0" y2="99"><stop offset="0" stop-color="#3aa56f"/><stop offset="0.5" stop-color="#2fb39a"/></linearGradient><linearGradient id="tl" gradientUnits="userSpaceOnUse" x1="0" y1="88" x2="-66" y2="52"><stop offset="0" stop-color="#3aa56f"/><stop offset="0.5" stop-color="#2fb39a"/></linearGradient><linearGradient id="tr0" gradientUnits="userSpaceOnUse" x1="-8.11" y1="1.23" x2="-67.61" y2="-14.72"><stop offset="0" stop-color="#c06aa8"/><stop offset="0.5" stop-color="#7b4fa8"/></linearGradient><linearGradient id="tr1" gradientUnits="userSpaceOnUse" x1="-7.9" y1="-1.16" x2="-65.82" y2="-34.6"><stop offset="0" stop-color="#c06aa8"/><stop offset="0.5" stop-color="#7b4fa8"/></linearGradient><linearGradient id="tr2" gradientUnits="userSpaceOnUse" x1="-6.96" y1="-3.56" x2="-57.98" y2="-54.58"><stop offset="0" stop-color="#c06aa8"/><stop offset="0.5" stop-color="#7b4fa8"/></linearGradient><linearGradient id="tr3" gradientUnits="userSpaceOnUse" x1="-5.28" y1="-5.75" x2="-44" y2="-72.81"><stop offset="0" stop-color="#c06aa8"/><stop offset="0.5" stop-color="#7b4fa8"/></linearGradient><linearGradient id="tr4" gradientUnits="userSpaceOnUse" x1="-2.92" y1="-7.5" x2="-24.33" y2="-87.4"><stop offset="0" stop-color="#c06aa8"/><stop offset="0.5" stop-color="#7b4fa8"/></linearGradient><linearGradient id="tr5" gradientUnits="userSpaceOnUse" x1="0" y1="-8.6" x2="0" y2="-96.6"><stop offset="0" stop-color="#c06aa8"/><stop offset="0.5" stop-color="#7b4fa8"/></linearGradient><linearGradient id="tr6" gradientUnits="userSpaceOnUse" x1="2.92" y1="-7.5" x2="24.33" y2="-87.4"><stop offset="0" stop-color="#c06aa8"/><stop offset="0.5" stop-color="#7b4fa8"/></linearGradient><linearGradient id="tr7" gradientUnits="userSpaceOnUse" x1="5.28" y1="-5.75" x2="44" y2="-72.81"><stop offset="0" stop-color="#c06aa8"/><stop offset="0.5" stop-color="#7b4fa8"/></linearGradient><linearGradient id="tr8" gradientUnits="userSpaceOnUse" x1="6.96" y1="-3.56" x2="57.98" y2="-54.58"><stop offset="0" stop-color="#c06aa8"/><stop offset="0.5" stop-color="#7b4fa8"/></linearGradient><linearGradient id="tr9" gradientUnits="userSpaceOnUse" x1="7.9" y1="-1.16" x2="65.82" y2="-34.6"><stop offset="0" stop-color="#c06aa8"/><stop offset="0.5" stop-color="#7b4fa8"/></linearGradient><linearGradient id="tr10" gradientUnits="userSpaceOnUse" x1="8.11" y1="1.23" x2="67.61" y2="-14.72"><stop offset="0" stop-color="#c06aa8"/><stop offset="0.5" stop-color="#7b4fa8"/></linearGradient></defs><g stroke-linecap="round"><line x1="0" y1="58" x2="0" y2="72" stroke="url(#ts)" stroke-width="1.1"/><line x1="0" y1="72" x2="0" y2="86" stroke="url(#ts)" stroke-width="1.1"/><line x1="0" y1="86" x2="0" y2="99" stroke="url(#ts)" stroke-width="1.1"/><line x1="0" y1="88" x2="-10.56" y2="88.52" stroke="url(#tl)" stroke-width="0.8"/><line x1="-10.56" y1="88.52" x2="-24.93" y2="85.04" stroke="url(#tl)" stroke-width="0.8"/><line x1="-24.93" y1="85.04" x2="-37.85" y2="78.88" stroke="url(#tl)" stroke-width="0.8"/><line x1="-37.85" y1="78.88" x2="-49.33" y2="70.11" stroke="url(#tl)" stroke-width="0.8"/><line x1="-49.33" y1="70.11" x2="-59.35" y2="58.65" stroke="url(#tl)" stroke-width="0.8"/><line x1="-59.35" y1="58.65" x2="-64.2" y2="48.7" stroke="url(#tl)" stroke-width="0.8"/><line x1="-10.56" y1="88.52" x2="-19.26" y2="76.21" stroke="url(#tl)" stroke-width="0.7"/><line x1="-24.93" y1="85.04" x2="-19.26" y2="76.21" stroke="url(#tl)" stroke-width="0.7"/><line x1="-24.93" y1="85.04" x2="-35.31" y2="66.38" stroke="url(#tl)" stroke-width="0.7"/><line x1="-37.85" y1="78.88" x2="-35.31" y2="66.38" stroke="url(#tl)" stroke-width="0.7"/><line x1="-37.85" y1="78.88" x2="-19.26" y2="76.21" stroke="url(#tl)" stroke-width="0.7"/><line x1="-49.33" y1="70.11" x2="-50.08" y2="57.35" stroke="url(#tl)" stroke-width="0.7"/><line x1="-49.33" y1="70.11" x2="-35.31" y2="66.38" stroke="url(#tl)" stroke-width="0.7"/><line x1="-59.35" y1="58.65" x2="-50.08" y2="57.35" stroke="url(#tl)" stroke-width="0.7"/><line x1="0" y1="88" x2="-4.85" y2="78.05" stroke="url(#tl)" stroke-width="0.8"/><line x1="-4.85" y1="78.05" x2="-14.87" y2="66.59" stroke="url(#tl)" stroke-width="0.8"/><line x1="-14.87" y1="66.59" x2="-26.35" y2="57.82" stroke="url(#tl)" stroke-width="0.8"/><line x1="-26.35" y1="57.82" x2="-39.27" y2="51.66" stroke="url(#tl)" stroke-width="0.8"/><line x1="-39.27" y1="51.66" x2="-53.64" y2="48.18" stroke="url(#tl)" stroke-width="0.8"/><line x1="-53.64" y1="48.18" x2="-64.2" y2="48.7" stroke="url(#tl)" stroke-width="0.8"/><line x1="-4.85" y1="78.05" x2="-19.26" y2="76.21" stroke="url(#tl)" stroke-width="0.7"/><line x1="-14.87" y1="66.59" x2="-19.26" y2="76.21" stroke="url(#tl)" stroke-width="0.7"/><line x1="-14.87" y1="66.59" x2="-35.31" y2="66.38" stroke="url(#tl)" stroke-width="0.7"/><line x1="-26.35" y1="57.82" x2="-35.31" y2="66.38" stroke="url(#tl)" stroke-width="0.7"/><line x1="-26.35" y1="57.82" x2="-19.26" y2="76.21" stroke="url(#tl)" stroke-width="0.7"/><line x1="-39.27" y1="51.66" x2="-50.08" y2="57.35" stroke="url(#tl)" stroke-width="0.7"/><line x1="-39.27" y1="51.66" x2="-35.31" y2="66.38" stroke="url(#tl)" stroke-width="0.7"/><line x1="-53.64" y1="48.18" x2="-50.08" y2="57.35" stroke="url(#tl)" stroke-width="0.7"/><line x1="0" y1="88" x2="-19.26" y2="76.21" stroke="url(#tl)" stroke-width="0.8"/><line x1="-19.26" y1="76.21" x2="-35.31" y2="66.38" stroke="url(#tl)" stroke-width="0.8"/><line x1="-35.31" y1="66.38" x2="-50.08" y2="57.35" stroke="url(#tl)" stroke-width="0.8"/><line x1="-50.08" y1="57.35" x2="-64.2" y2="48.7" stroke="url(#tl)" stroke-width="0.8"/><line x1="-24.93" y1="85.04" x2="-28.29" y2="91.19" stroke="#2fb39a" stroke-width="0.6"/><line x1="-37.85" y1="78.88" x2="-41.2" y2="85.03" stroke="#2fb39a" stroke-width="0.6"/><line x1="-49.33" y1="70.11" x2="-52.68" y2="76.25" stroke="#2fb39a" stroke-width="0.6"/><line x1="-14.87" y1="66.59" x2="-11.52" y2="60.45" stroke="#2fb39a" stroke-width="0.6"/><line x1="-26.35" y1="57.82" x2="-23" y2="51.67" stroke="#2fb39a" stroke-width="0.6"/><line x1="-39.27" y1="51.66" x2="-35.91" y2="45.51" stroke="#2fb39a" stroke-width="0.6"/></g><g><circle cx="-10.56" cy="88.52" r="1.86" fill="#39a774"/><circle cx="-24.93" cy="85.04" r="1.96" fill="#37a97c"/><circle cx="-37.85" cy="78.88" r="2.05" fill="#34ac84"/><circle cx="-49.33" cy="70.11" r="2.15" fill="#32af8d"/><circle cx="-59.35" cy="58.65" r="2.24" fill="#30b195"/><circle cx="-4.85" cy="78.05" r="1.86" fill="#39a774"/><circle cx="-14.87" cy="66.59" r="1.96" fill="#37a97c"/><circle cx="-26.35" cy="57.82" r="2.05" fill="#34ac84"/><circle cx="-39.27" cy="51.66" r="2.15" fill="#32af8d"/><circle cx="-53.64" cy="48.18" r="2.24" fill="#30b195"/><circle cx="-19.26" cy="76.21" r="1.8" fill="#37a97c"/><circle cx="-35.31" cy="66.38" r="1.8" fill="#34ad87"/><circle cx="-50.08" cy="57.35" r="1.8" fill="#31b091"/><circle cx="-64.2" cy="48.7" r="3.4" fill="#2fb39a"/><circle cx="-28.29" cy="91.19" r="1.2" fill="#2fb39a"/><circle cx="-41.2" cy="85.03" r="1.2" fill="#2fb39a"/><circle cx="-52.68" cy="76.25" r="1.2" fill="#2fb39a"/><circle cx="-11.52" cy="60.45" r="1.2" fill="#2fb39a"/><circle cx="-23" cy="51.67" r="1.2" fill="#2fb39a"/><circle cx="-35.91" cy="45.51" r="1.2" fill="#2fb39a"/><circle cx="0" cy="72" r="2.2" fill="#3aa56f"/><circle cx="0" cy="86" r="2.2" fill="#3aa56f"/><circle cx="0" cy="99" r="3" fill="#3aa56f"/></g><g stroke-linecap="round"><line x1="-17.17" y1="3.4" x2="-10.3" y2="3.4" stroke="#39a673" stroke-width="0.7" stroke-opacity="0.9"/><line x1="-10.3" y1="3.4" x2="-3.43" y2="3.4" stroke="#39a673" stroke-width="0.7" stroke-opacity="0.9"/><line x1="-3.43" y1="3.4" x2="3.43" y2="3.4" stroke="#39a673" stroke-width="0.7" stroke-opacity="0.9"/><line x1="3.43" y1="3.4" x2="10.3" y2="3.4" stroke="#39a673" stroke-width="0.7" stroke-opacity="0.9"/><line x1="10.3" y1="3.4" x2="17.17" y2="3.4" stroke="#39a673" stroke-width="0.7" stroke-opacity="0.9"/><line x1="-22.33" y1="14.5" x2="-13.4" y2="14.5" stroke="#37a97b" stroke-width="0.7" stroke-opacity="0.9"/><line x1="-13.4" y1="14.5" x2="-4.47" y2="14.5" stroke="#37a97b" stroke-width="0.7" stroke-opacity="0.9"/><line x1="-4.47" y1="14.5" x2="4.47" y2="14.5" stroke="#37a97b" stroke-width="0.7" stroke-opacity="0.9"/><line x1="4.47" y1="14.5" x2="13.4" y2="14.5" stroke="#37a97b" stroke-width="0.7" stroke-opacity="0.9"/><line x1="13.4" y1="14.5" x2="22.33" y2="14.5" stroke="#37a97b" stroke-width="0.7" stroke-opacity="0.9"/><line x1="-30" y1="28" x2="-20" y2="28" stroke="#34ac84" stroke-width="0.7" stroke-opacity="0.9"/><line x1="-20" y1="28" x2="-10" y2="28" stroke="#34ac84" stroke-width="0.7" stroke-opacity="0.9"/><line x1="-10" y1="28" x2="0" y2="28" stroke="#34ac84" stroke-width="0.7" stroke-opacity="0.9"/><line x1="0" y1="28" x2="10" y2="28" stroke="#34ac84" stroke-width="0.7" stroke-opacity="0.9"/><line x1="10" y1="28" x2="20" y2="28" stroke="#34ac84" stroke-width="0.7" stroke-opacity="0.9"/><line x1="20" y1="28" x2="30" y2="28" stroke="#34ac84" stroke-width="0.7" stroke-opacity="0.9"/><line x1="-22.33" y1="41.5" x2="-13.4" y2="41.5" stroke="#32af8e" stroke-width="0.7" stroke-opacity="0.9"/><line x1="-13.4" y1="41.5" x2="-4.47" y2="41.5" stroke="#32af8e" stroke-width="0.7" stroke-opacity="0.9"/><line x1="-4.47" y1="41.5" x2="4.47" y2="41.5" stroke="#32af8e" stroke-width="0.7" stroke-opacity="0.9"/><line x1="4.47" y1="41.5" x2="13.4" y2="41.5" stroke="#32af8e" stroke-width="0.7" stroke-opacity="0.9"/><line x1="13.4" y1="41.5" x2="22.33" y2="41.5" stroke="#32af8e" stroke-width="0.7" stroke-opacity="0.9"/><line x1="-17.17" y1="52.6" x2="-10.3" y2="52.6" stroke="#30b296" stroke-width="0.7" stroke-opacity="0.9"/><line x1="-10.3" y1="52.6" x2="-3.43" y2="52.6" stroke="#30b296" stroke-width="0.7" stroke-opacity="0.9"/><line x1="-3.43" y1="52.6" x2="3.43" y2="52.6" stroke="#30b296" stroke-width="0.7" stroke-opacity="0.9"/><line x1="3.43" y1="52.6" x2="10.3" y2="52.6" stroke="#30b296" stroke-width="0.7" stroke-opacity="0.9"/><line x1="10.3" y1="52.6" x2="17.17" y2="52.6" stroke="#30b296" stroke-width="0.7" stroke-opacity="0.9"/><line x1="-17.17" y1="3.4" x2="-13.4" y2="14.5" stroke="#37a97b" stroke-width="0.6" stroke-opacity="0.85"/><line x1="-17.17" y1="3.4" x2="-22.33" y2="14.5" stroke="#37a97b" stroke-width="0.6" stroke-opacity="0.85"/><line x1="-10.3" y1="3.4" x2="-13.4" y2="14.5" stroke="#37a97b" stroke-width="0.6" stroke-opacity="0.85"/><line x1="-10.3" y1="3.4" x2="-4.47" y2="14.5" stroke="#37a97b" stroke-width="0.6" stroke-opacity="0.85"/><line x1="-3.43" y1="3.4" x2="-4.47" y2="14.5" stroke="#37a97b" stroke-width="0.6" stroke-opacity="0.85"/><line x1="-3.43" y1="3.4" x2="4.47" y2="14.5" stroke="#37a97b" stroke-width="0.6" stroke-opacity="0.85"/><line x1="3.43" y1="3.4" x2="4.47" y2="14.5" stroke="#37a97b" stroke-width="0.6" stroke-opacity="0.85"/><line x1="3.43" y1="3.4" x2="-4.47" y2="14.5" stroke="#37a97b" stroke-width="0.6" stroke-opacity="0.85"/><line x1="10.3" y1="3.4" x2="13.4" y2="14.5" stroke="#37a97b" stroke-width="0.6" stroke-opacity="0.85"/><line x1="10.3" y1="3.4" x2="4.47" y2="14.5" stroke="#37a97b" stroke-width="0.6" stroke-opacity="0.85"/><line x1="17.17" y1="3.4" x2="13.4" y2="14.5" stroke="#37a97b" stroke-width="0.6" stroke-opacity="0.85"/><line x1="17.17" y1="3.4" x2="22.33" y2="14.5" stroke="#37a97b" stroke-width="0.6" stroke-opacity="0.85"/><line x1="-22.33" y1="14.5" x2="-20" y2="28" stroke="#34ac84" stroke-width="0.6" stroke-opacity="0.85"/><line x1="-22.33" y1="14.5" x2="-30" y2="28" stroke="#34ac84" stroke-width="0.6" stroke-opacity="0.85"/><line x1="-13.4" y1="14.5" x2="-10" y2="28" stroke="#34ac84" stroke-width="0.6" stroke-opacity="0.85"/><line x1="-13.4" y1="14.5" x2="-20" y2="28" stroke="#34ac84" stroke-width="0.6" stroke-opacity="0.85"/><line x1="-4.47" y1="14.5" x2="0" y2="28" stroke="#34ac84" stroke-width="0.6" stroke-opacity="0.85"/><line x1="-4.47" y1="14.5" x2="-10" y2="28" stroke="#34ac84" stroke-width="0.6" stroke-opacity="0.85"/><line x1="4.47" y1="14.5" x2="0" y2="28" stroke="#34ac84" stroke-width="0.6" stroke-opacity="0.85"/><line x1="4.47" y1="14.5" x2="10" y2="28" stroke="#34ac84" stroke-width="0.6" stroke-opacity="0.85"/><line x1="13.4" y1="14.5" x2="10" y2="28" stroke="#34ac84" stroke-width="0.6" stroke-opacity="0.85"/><line x1="13.4" y1="14.5" x2="20" y2="28" stroke="#34ac84" stroke-width="0.6" stroke-opacity="0.85"/><line x1="22.33" y1="14.5" x2="20" y2="28" stroke="#34ac84" stroke-width="0.6" stroke-opacity="0.85"/><line x1="22.33" y1="14.5" x2="30" y2="28" stroke="#34ac84" stroke-width="0.6" stroke-opacity="0.85"/><line x1="-30" y1="28" x2="-22.33" y2="41.5" stroke="#32af8e" stroke-width="0.6" stroke-opacity="0.85"/><line x1="-30" y1="28" x2="-13.4" y2="41.5" stroke="#32af8e" stroke-width="0.6" stroke-opacity="0.85"/><line x1="-20" y1="28" x2="-22.33" y2="41.5" stroke="#32af8e" stroke-width="0.6" stroke-opacity="0.85"/><line x1="-20" y1="28" x2="-13.4" y2="41.5" stroke="#32af8e" stroke-width="0.6" stroke-opacity="0.85"/><line x1="-10" y1="28" x2="-13.4" y2="41.5" stroke="#32af8e" stroke-width="0.6" stroke-opacity="0.85"/><line x1="-10" y1="28" x2="-4.47" y2="41.5" stroke="#32af8e" stroke-width="0.6" stroke-opacity="0.85"/><line x1="0" y1="28" x2="-4.47" y2="41.5" stroke="#32af8e" stroke-width="0.6" stroke-opacity="0.85"/><line x1="0" y1="28" x2="4.47" y2="41.5" stroke="#32af8e" stroke-width="0.6" stroke-opacity="0.85"/><line x1="10" y1="28" x2="13.4" y2="41.5" stroke="#32af8e" stroke-width="0.6" stroke-opacity="0.85"/><line x1="10" y1="28" x2="4.47" y2="41.5" stroke="#32af8e" stroke-width="0.6" stroke-opacity="0.85"/><line x1="20" y1="28" x2="22.33" y2="41.5" stroke="#32af8e" stroke-width="0.6" stroke-opacity="0.85"/><line x1="20" y1="28" x2="13.4" y2="41.5" stroke="#32af8e" stroke-width="0.6" stroke-opacity="0.85"/><line x1="30" y1="28" x2="22.33" y2="41.5" stroke="#32af8e" stroke-width="0.6" stroke-opacity="0.85"/><line x1="30" y1="28" x2="13.4" y2="41.5" stroke="#32af8e" stroke-width="0.6" stroke-opacity="0.85"/><line x1="-22.33" y1="41.5" x2="-17.17" y2="52.6" stroke="#30b296" stroke-width="0.6" stroke-opacity="0.85"/><line x1="-22.33" y1="41.5" x2="-10.3" y2="52.6" stroke="#30b296" stroke-width="0.6" stroke-opacity="0.85"/><line x1="-13.4" y1="41.5" x2="-10.3" y2="52.6" stroke="#30b296" stroke-width="0.6" stroke-opacity="0.85"/><line x1="-13.4" y1="41.5" x2="-17.17" y2="52.6" stroke="#30b296" stroke-width="0.6" stroke-opacity="0.85"/><line x1="-4.47" y1="41.5" x2="-3.43" y2="52.6" stroke="#30b296" stroke-width="0.6" stroke-opacity="0.85"/><line x1="-4.47" y1="41.5" x2="-10.3" y2="52.6" stroke="#30b296" stroke-width="0.6" stroke-opacity="0.85"/><line x1="4.47" y1="41.5" x2="3.43" y2="52.6" stroke="#30b296" stroke-width="0.6" stroke-opacity="0.85"/><line x1="4.47" y1="41.5" x2="10.3" y2="52.6" stroke="#30b296" stroke-width="0.6" stroke-opacity="0.85"/><line x1="13.4" y1="41.5" x2="10.3" y2="52.6" stroke="#30b296" stroke-width="0.6" stroke-opacity="0.85"/><line x1="13.4" y1="41.5" x2="17.17" y2="52.6" stroke="#30b296" stroke-width="0.6" stroke-opacity="0.85"/><line x1="22.33" y1="41.5" x2="17.17" y2="52.6" stroke="#30b296" stroke-width="0.6" stroke-opacity="0.85"/><line x1="22.33" y1="41.5" x2="10.3" y2="52.6" stroke="#30b296" stroke-width="0.6" stroke-opacity="0.85"/><line x1="28.19" y1="18.56" x2="37.59" y2="15.14" stroke="#2fb39a" stroke-width="0.7"/><line x1="29.98" y1="28.96" x2="39.98" y2="29.31" stroke="#2fb39a" stroke-width="0.7"/><line x1="27.41" y1="39.23" x2="36.54" y2="43.29" stroke="#2fb39a" stroke-width="0.7"/><line x1="20.84" y1="47.85" x2="27.79" y2="55.05" stroke="#2fb39a" stroke-width="0.7"/><line x1="11.24" y1="53.59" x2="14.98" y2="62.86" stroke="#2fb39a" stroke-width="0.7"/><line x1="0" y1="55.6" x2="0" y2="65.6" stroke="#2fb39a" stroke-width="0.7"/><line x1="-11.24" y1="53.59" x2="-14.98" y2="62.86" stroke="#2fb39a" stroke-width="0.7"/><line x1="-20.84" y1="47.85" x2="-27.79" y2="55.05" stroke="#2fb39a" stroke-width="0.7"/><line x1="-27.41" y1="39.23" x2="-36.54" y2="43.29" stroke="#2fb39a" stroke-width="0.7"/><line x1="-29.98" y1="28.96" x2="-39.98" y2="29.31" stroke="#2fb39a" stroke-width="0.7"/><line x1="0" y1="3.4" x2="-8.11" y2="1.23" stroke="url(#tr0)" stroke-width="0.7"/><line x1="-8.11" y1="1.23" x2="-30.43" y2="-4.75" stroke="url(#tr0)" stroke-width="0.7"/><line x1="-30.43" y1="-4.75" x2="-50.71" y2="-10.19" stroke="url(#tr0)" stroke-width="0.7"/><line x1="-50.71" y1="-10.19" x2="-67.61" y2="-14.72" stroke="url(#tr0)" stroke-width="0.7"/><line x1="0" y1="3.4" x2="-7.9" y2="-1.16" stroke="url(#tr1)" stroke-width="0.7"/><line x1="-7.9" y1="-1.16" x2="-29.62" y2="-13.7" stroke="url(#tr1)" stroke-width="0.7"/><line x1="-29.62" y1="-13.7" x2="-49.36" y2="-25.1" stroke="url(#tr1)" stroke-width="0.7"/><line x1="-49.36" y1="-25.1" x2="-65.82" y2="-34.6" stroke="url(#tr1)" stroke-width="0.7"/><line x1="0" y1="3.4" x2="-6.96" y2="-3.56" stroke="url(#tr2)" stroke-width="0.7"/><line x1="-6.96" y1="-3.56" x2="-26.09" y2="-22.69" stroke="url(#tr2)" stroke-width="0.7"/><line x1="-26.09" y1="-22.69" x2="-43.49" y2="-40.09" stroke="url(#tr2)" stroke-width="0.7"/><line x1="-43.49" y1="-40.09" x2="-57.98" y2="-54.58" stroke="url(#tr2)" stroke-width="0.7"/><line x1="0" y1="3.4" x2="-5.28" y2="-5.75" stroke="url(#tr3)" stroke-width="0.7"/><line x1="-5.28" y1="-5.75" x2="-19.8" y2="-30.89" stroke="url(#tr3)" stroke-width="0.7"/><line x1="-19.8" y1="-30.89" x2="-33" y2="-53.76" stroke="url(#tr3)" stroke-width="0.7"/><line x1="-33" y1="-53.76" x2="-44" y2="-72.81" stroke="url(#tr3)" stroke-width="0.7"/><line x1="0" y1="3.4" x2="-2.92" y2="-7.5" stroke="url(#tr4)" stroke-width="0.7"/><line x1="-2.92" y1="-7.5" x2="-10.95" y2="-37.46" stroke="url(#tr4)" stroke-width="0.7"/><line x1="-10.95" y1="-37.46" x2="-18.25" y2="-64.7" stroke="url(#tr4)" stroke-width="0.7"/><line x1="-18.25" y1="-64.7" x2="-24.33" y2="-87.4" stroke="url(#tr4)" stroke-width="0.7"/><line x1="0" y1="3.4" x2="0" y2="-8.6" stroke="url(#tr5)" stroke-width="0.7"/><line x1="0" y1="-8.6" x2="0" y2="-41.6" stroke="url(#tr5)" stroke-width="0.7"/><line x1="0" y1="-41.6" x2="0" y2="-71.6" stroke="url(#tr5)" stroke-width="0.7"/><line x1="0" y1="-71.6" x2="0" y2="-96.6" stroke="url(#tr5)" stroke-width="0.7"/><line x1="0" y1="3.4" x2="2.92" y2="-7.5" stroke="url(#tr6)" stroke-width="0.7"/><line x1="2.92" y1="-7.5" x2="10.95" y2="-37.46" stroke="url(#tr6)" stroke-width="0.7"/><line x1="10.95" y1="-37.46" x2="18.25" y2="-64.7" stroke="url(#tr6)" stroke-width="0.7"/><line x1="18.25" y1="-64.7" x2="24.33" y2="-87.4" stroke="url(#tr6)" stroke-width="0.7"/><line x1="0" y1="3.4" x2="5.28" y2="-5.75" stroke="url(#tr7)" stroke-width="0.7"/><line x1="5.28" y1="-5.75" x2="19.8" y2="-30.89" stroke="url(#tr7)" stroke-width="0.7"/><line x1="19.8" y1="-30.89" x2="33" y2="-53.76" stroke="url(#tr7)" stroke-width="0.7"/><line x1="33" y1="-53.76" x2="44" y2="-72.81" stroke="url(#tr7)" stroke-width="0.7"/><line x1="0" y1="3.4" x2="6.96" y2="-3.56" stroke="url(#tr8)" stroke-width="0.7"/><line x1="6.96" y1="-3.56" x2="26.09" y2="-22.69" stroke="url(#tr8)" stroke-width="0.7"/><line x1="26.09" y1="-22.69" x2="43.49" y2="-40.09" stroke="url(#tr8)" stroke-width="0.7"/><line x1="43.49" y1="-40.09" x2="57.98" y2="-54.58" stroke="url(#tr8)" stroke-width="0.7"/><line x1="0" y1="3.4" x2="7.9" y2="-1.16" stroke="url(#tr9)" stroke-width="0.7"/><line x1="7.9" y1="-1.16" x2="29.62" y2="-13.7" stroke="url(#tr9)" stroke-width="0.7"/><line x1="29.62" y1="-13.7" x2="49.36" y2="-25.1" stroke="url(#tr9)" stroke-width="0.7"/><line x1="49.36" y1="-25.1" x2="65.82" y2="-34.6" stroke="url(#tr9)" stroke-width="0.7"/><line x1="0" y1="3.4" x2="8.11" y2="1.23" stroke="url(#tr10)" stroke-width="0.7"/><line x1="8.11" y1="1.23" x2="30.43" y2="-4.75" stroke="url(#tr10)" stroke-width="0.7"/><line x1="30.43" y1="-4.75" x2="50.71" y2="-10.19" stroke="url(#tr10)" stroke-width="0.7"/><line x1="50.71" y1="-10.19" x2="67.61" y2="-14.72" stroke="url(#tr10)" stroke-width="0.7"/><line x1="-30.43" y1="-4.75" x2="-29.62" y2="-13.7" stroke="#ab62a8" stroke-width="0.5" stroke-opacity="0.75"/><line x1="-50.71" y1="-10.19" x2="-49.36" y2="-25.1" stroke="#975aa8" stroke-width="0.5" stroke-opacity="0.75"/><line x1="-29.62" y1="-13.7" x2="-26.09" y2="-22.69" stroke="#ab62a8" stroke-width="0.5" stroke-opacity="0.75"/><line x1="-49.36" y1="-25.1" x2="-43.49" y2="-40.09" stroke="#975aa8" stroke-width="0.5" stroke-opacity="0.75"/><line x1="-26.09" y1="-22.69" x2="-19.8" y2="-30.89" stroke="#ab62a8" stroke-width="0.5" stroke-opacity="0.75"/><line x1="-43.49" y1="-40.09" x2="-33" y2="-53.76" stroke="#975aa8" stroke-width="0.5" stroke-opacity="0.75"/><line x1="-19.8" y1="-30.89" x2="-10.95" y2="-37.46" stroke="#ab62a8" stroke-width="0.5" stroke-opacity="0.75"/><line x1="-33" y1="-53.76" x2="-18.25" y2="-64.7" stroke="#975aa8" stroke-width="0.5" stroke-opacity="0.75"/><line x1="-10.95" y1="-37.46" x2="0" y2="-41.6" stroke="#ab62a8" stroke-width="0.5" stroke-opacity="0.75"/><line x1="-18.25" y1="-64.7" x2="0" y2="-71.6" stroke="#975aa8" stroke-width="0.5" stroke-opacity="0.75"/><line x1="0" y1="-41.6" x2="10.95" y2="-37.46" stroke="#ab62a8" stroke-width="0.5" stroke-opacity="0.75"/><line x1="0" y1="-71.6" x2="18.25" y2="-64.7" stroke="#975aa8" stroke-width="0.5" stroke-opacity="0.75"/><line x1="10.95" y1="-37.46" x2="19.8" y2="-30.89" stroke="#ab62a8" stroke-width="0.5" stroke-opacity="0.75"/><line x1="18.25" y1="-64.7" x2="33" y2="-53.76" stroke="#975aa8" stroke-width="0.5" stroke-opacity="0.75"/><line x1="19.8" y1="-30.89" x2="26.09" y2="-22.69" stroke="#ab62a8" stroke-width="0.5" stroke-opacity="0.75"/><line x1="33" y1="-53.76" x2="43.49" y2="-40.09" stroke="#975aa8" stroke-width="0.5" stroke-opacity="0.75"/><line x1="26.09" y1="-22.69" x2="29.62" y2="-13.7" stroke="#ab62a8" stroke-width="0.5" stroke-opacity="0.75"/><line x1="43.49" y1="-40.09" x2="49.36" y2="-25.1" stroke="#975aa8" stroke-width="0.5" stroke-opacity="0.75"/><line x1="29.62" y1="-13.7" x2="30.43" y2="-4.75" stroke="#ab62a8" stroke-width="0.5" stroke-opacity="0.75"/><line x1="49.36" y1="-25.1" x2="50.71" y2="-10.19" stroke="#975aa8" stroke-width="0.5" stroke-opacity="0.75"/></g><g><circle cx="37.59" cy="15.14" r="1.3" fill="#2fb39a"/><circle cx="28.19" cy="18.56" r="2" fill="#36aa7e"/><circle cx="39.98" cy="29.31" r="1.3" fill="#2fb39a"/><circle cx="29.98" cy="28.96" r="2" fill="#34ac85"/><circle cx="36.54" cy="43.29" r="1.3" fill="#2fb39a"/><circle cx="27.41" cy="39.23" r="2" fill="#32af8d"/><circle cx="27.79" cy="55.05" r="1.3" fill="#2fb39a"/><circle cx="20.84" cy="47.85" r="2" fill="#31b193"/><circle cx="14.98" cy="62.86" r="1.3" fill="#2fb39a"/><circle cx="11.24" cy="53.59" r="2" fill="#30b297"/><circle cx="0" cy="65.6" r="1.3" fill="#2fb39a"/><circle cx="0" cy="55.6" r="2" fill="#2fb298"/><circle cx="-14.98" cy="62.86" r="1.3" fill="#2fb39a"/><circle cx="-11.24" cy="53.59" r="2" fill="#30b297"/><circle cx="-27.79" cy="55.05" r="1.3" fill="#2fb39a"/><circle cx="-20.84" cy="47.85" r="2" fill="#31b193"/><circle cx="-36.54" cy="43.29" r="1.3" fill="#2fb39a"/><circle cx="-27.41" cy="39.23" r="2" fill="#32af8d"/><circle cx="-39.98" cy="29.31" r="1.3" fill="#2fb39a"/><circle cx="-29.98" cy="28.96" r="2" fill="#34ac85"/><circle cx="-17.17" cy="3.4" r="2.2" fill="#39a673"/><circle cx="-10.3" cy="3.4" r="2.2" fill="#39a673"/><circle cx="-3.43" cy="3.4" r="2.2" fill="#39a673"/><circle cx="3.43" cy="3.4" r="2.2" fill="#39a673"/><circle cx="10.3" cy="3.4" r="2.2" fill="#39a673"/><circle cx="17.17" cy="3.4" r="2.2" fill="#39a673"/><circle cx="-22.33" cy="14.5" r="2.2" fill="#37a97b"/><circle cx="-13.4" cy="14.5" r="2.2" fill="#37a97b"/><circle cx="-4.47" cy="14.5" r="2.2" fill="#37a97b"/><circle cx="4.47" cy="14.5" r="2.2" fill="#37a97b"/><circle cx="13.4" cy="14.5" r="2.2" fill="#37a97b"/><circle cx="22.33" cy="14.5" r="2.2" fill="#37a97b"/><circle cx="-30" cy="28" r="2.2" fill="#34ac84"/><circle cx="-20" cy="28" r="2.2" fill="#34ac84"/><circle cx="-10" cy="28" r="2.2" fill="#34ac84"/><circle cx="0" cy="28" r="2.2" fill="#34ac84"/><circle cx="10" cy="28" r="2.2" fill="#34ac84"/><circle cx="20" cy="28" r="2.2" fill="#34ac84"/><circle cx="30" cy="28" r="2.2" fill="#34ac84"/><circle cx="-22.33" cy="41.5" r="2.2" fill="#32af8e"/><circle cx="-13.4" cy="41.5" r="2.2" fill="#32af8e"/><circle cx="-4.47" cy="41.5" r="2.2" fill="#32af8e"/><circle cx="4.47" cy="41.5" r="2.2" fill="#32af8e"/><circle cx="13.4" cy="41.5" r="2.2" fill="#32af8e"/><circle cx="22.33" cy="41.5" r="2.2" fill="#32af8e"/><circle cx="-17.17" cy="52.6" r="2.2" fill="#30b296"/><circle cx="-10.3" cy="52.6" r="2.2" fill="#30b296"/><circle cx="-3.43" cy="52.6" r="2.2" fill="#30b296"/><circle cx="3.43" cy="52.6" r="2.2" fill="#30b296"/><circle cx="10.3" cy="52.6" r="2.2" fill="#30b296"/><circle cx="17.17" cy="52.6" r="2.2" fill="#30b296"/><circle cx="-8.11" cy="1.23" r="1.4" fill="#c06aa8"/><circle cx="-30.43" cy="-4.75" r="1.9" fill="#a961a8"/><circle cx="-50.71" cy="-10.19" r="2.3" fill="#9258a8"/><circle cx="-67.61" cy="-14.72" r="3.6" fill="#7b4fa8"/><circle cx="-7.9" cy="-1.16" r="1.4" fill="#c06aa8"/><circle cx="-29.62" cy="-13.7" r="1.9" fill="#a961a8"/><circle cx="-49.36" cy="-25.1" r="2.3" fill="#9258a8"/><circle cx="-65.82" cy="-34.6" r="3.6" fill="#7b4fa8"/><circle cx="-6.96" cy="-3.56" r="1.4" fill="#c06aa8"/><circle cx="-26.09" cy="-22.69" r="1.9" fill="#a961a8"/><circle cx="-43.49" cy="-40.09" r="2.3" fill="#9258a8"/><circle cx="-57.98" cy="-54.58" r="3.6" fill="#7b4fa8"/><circle cx="-5.28" cy="-5.75" r="1.4" fill="#c06aa8"/><circle cx="-19.8" cy="-30.89" r="1.9" fill="#a961a8"/><circle cx="-33" cy="-53.76" r="2.3" fill="#9258a8"/><circle cx="-44" cy="-72.81" r="3.6" fill="#7b4fa8"/><circle cx="-2.92" cy="-7.5" r="1.4" fill="#c06aa8"/><circle cx="-10.95" cy="-37.46" r="1.9" fill="#a961a8"/><circle cx="-18.25" cy="-64.7" r="2.3" fill="#9258a8"/><circle cx="-24.33" cy="-87.4" r="3.6" fill="#7b4fa8"/><circle cx="0" cy="-8.6" r="1.4" fill="#c06aa8"/><circle cx="0" cy="-41.6" r="1.9" fill="#a961a8"/><circle cx="0" cy="-71.6" r="2.3" fill="#9258a8"/><circle cx="0" cy="-96.6" r="3.6" fill="#7b4fa8"/><circle cx="2.92" cy="-7.5" r="1.4" fill="#c06aa8"/><circle cx="10.95" cy="-37.46" r="1.9" fill="#a961a8"/><circle cx="18.25" cy="-64.7" r="2.3" fill="#9258a8"/><circle cx="24.33" cy="-87.4" r="3.6" fill="#7b4fa8"/><circle cx="5.28" cy="-5.75" r="1.4" fill="#c06aa8"/><circle cx="19.8" cy="-30.89" r="1.9" fill="#a961a8"/><circle cx="33" cy="-53.76" r="2.3" fill="#9258a8"/><circle cx="44" cy="-72.81" r="3.6" fill="#7b4fa8"/><circle cx="6.96" cy="-3.56" r="1.4" fill="#c06aa8"/><circle cx="26.09" cy="-22.69" r="1.9" fill="#a961a8"/><circle cx="43.49" cy="-40.09" r="2.3" fill="#9258a8"/><circle cx="57.98" cy="-54.58" r="3.6" fill="#7b4fa8"/><circle cx="7.9" cy="-1.16" r="1.4" fill="#c06aa8"/><circle cx="29.62" cy="-13.7" r="1.9" fill="#a961a8"/><circle cx="49.36" cy="-25.1" r="2.3" fill="#9258a8"/><circle cx="65.82" cy="-34.6" r="3.6" fill="#7b4fa8"/><circle cx="8.11" cy="1.23" r="1.4" fill="#c06aa8"/><circle cx="30.43" cy="-4.75" r="1.9" fill="#a961a8"/><circle cx="50.71" cy="-10.19" r="2.3" fill="#9258a8"/><circle cx="67.61" cy="-14.72" r="3.6" fill="#7b4fa8"/><circle cx="0" cy="3.4" r="4.4" fill="#f2b632"/></g></svg>
